<svg width="30" height="38" viewBox="0 0 30 38" fill="none" xmlns="http://www.w3.org/2000/svg">
<path d="M15 10.9734C16.85 10.9734 18.3333 9.47339 18.3333 7.64006C18.3333 7.00672 18.1667 6.42339 17.85 5.92339L15 0.973389L12.15 5.92339C11.8333 6.42339 11.6667 7.00672 11.6667 7.64006C11.6667 8.52411 12.0179 9.37196 12.643 9.99708C13.2681 10.6222 14.1159 10.9734 15 10.9734ZM22.6667 27.6401L20.8833 25.8401L19.0833 27.6401C16.9167 29.7901 13.1167 29.8067 10.9333 27.6401L9.16667 25.8401L7.33333 27.6401C6.25 28.7067 4.8 29.3067 3.26667 29.3067C2.05 29.3067 0.933333 28.9234 0 28.2901V35.9734C0 36.4154 0.175595 36.8393 0.488155 37.1519C0.800716 37.4645 1.22464 37.6401 1.66667 37.6401H28.3333C28.7754 37.6401 29.1993 37.4645 29.5118 37.1519C29.8244 36.8393 30 36.4154 30 35.9734V28.2901C29.0667 28.9234 27.95 29.3067 26.7333 29.3067C25.2 29.3067 23.75 28.7067 22.6667 27.6401ZM25 15.9734H16.6667V12.6401H13.3333V15.9734H5C3.67392 15.9734 2.40215 16.5002 1.46447 17.4379C0.526784 18.3755 0 19.6473 0 20.9734V23.5401C0 25.3401 1.46667 26.8067 3.26667 26.8067C4.16667 26.8067 5 26.4734 5.56667 25.8567L9.16667 22.3067L12.6833 25.8567C13.9167 27.0901 16.0667 27.0901 17.3 25.8567L20.8333 22.3067L24.4167 25.8567C25 26.4734 25.8333 26.8067 26.7167 26.8067C28.5167 26.8067 30 25.3401 30 23.5401V20.9734C30 19.6473 29.4732 18.3755 28.5355 17.4379C27.5979 16.5002 26.3261 15.9734 25 15.9734Z" fill="#164789"/>
</svg>
