<svg width="30" height="34" viewBox="0 0 30 34" fill="none" xmlns="http://www.w3.org/2000/svg">
<path d="M10 33.9732H23.3333V29.8066C27.35 27.0899 30 22.5066 30 17.3066V3.97323C30 3.08917 29.6488 2.24132 29.0237 1.6162C28.3986 0.991082 27.5507 0.639893 26.6667 0.639893H20C18.15 0.639893 16.6667 2.13989 16.6667 3.97323V17.3066H0C0 22.4566 3.33333 27.3066 10 29.8066V33.9732ZM3.81667 20.6399H26.1833C25.2333 23.8232 22.95 26.4732 20 27.8566V30.6399H13.3333V27.8566C10 27.3066 4.76667 23.8232 3.81667 20.6399ZM20 3.97323H26.6667V17.3066H20V3.97323ZM21.6667 5.63989V10.6399H25V5.63989H21.6667Z" fill="#164789"/>
</svg>
