<svg width="30" height="34" viewBox="0 0 30 34" fill="none" xmlns="http://www.w3.org/2000/svg">
<path d="M6.66667 15.6399H15V23.9732H6.66667M26.6667 30.6399H3.33333V12.3066H26.6667M26.6667 3.97323H25V0.639893H21.6667V3.97323H8.33333V0.639893H5V3.97323H3.33333C1.48333 3.97323 0 5.47323 0 7.30656V30.6399C0 31.5239 0.351189 32.3718 0.976311 32.9969C1.60143 33.622 2.44928 33.9732 3.33333 33.9732H26.6667C27.5507 33.9732 28.3986 33.622 29.0237 32.9969C29.6488 32.3718 30 31.5239 30 30.6399V7.30656C30 6.4225 29.6488 5.57466 29.0237 4.94954C28.3986 4.32442 27.5507 3.97323 26.6667 3.97323Z" fill="#164789"/>
</svg>
