<svg width="30" height="31" viewBox="0 0 30 31" fill="none" xmlns="http://www.w3.org/2000/svg">
<path d="M23.2636 30.7026H25.5273C26.6727 30.7026 27.6136 29.8163 27.75 28.6981L30 6.22536H23.1818V0.702637H20.4955V6.22536H13.7182L14.1273 9.41627C16.4591 10.0572 18.6409 11.2163 19.95 12.4981C21.9136 14.4345 23.2636 16.439 23.2636 19.7117V30.7026ZM0 29.339V27.9754H20.4955V29.339C20.4955 30.0754 19.8818 30.7026 19.0909 30.7026H1.36364C0.613636 30.7026 0 30.0754 0 29.339ZM20.4955 19.7935C20.4955 8.88446 0 8.88446 0 19.7935H20.4955ZM0 22.5208H20.4545V25.2481H0V22.5208Z" fill="#164789"/>
</svg>
