<svg width="30" height="31" viewBox="0 0 30 31" fill="none" xmlns="http://www.w3.org/2000/svg">
<path d="M23.7391 13.0939L19.5652 10.7461V5.92003H21.5217V9.5722L24.6522 11.3983L23.7391 13.0939ZM27.6522 15.9635C28.3043 16.8765 28.6957 17.92 28.6957 18.9635V30.7026H26.087V26.7896H2.6087V30.7026H0V11.1374H2.6087V22.8766H13.0435V14.5287C12.2609 13.0939 11.7391 11.5287 11.7391 9.83307C11.7391 4.74611 15.7826 0.702637 20.8696 0.702637C25.9565 0.702637 30 4.74611 30 9.83307C30 12.1809 29.087 14.2679 27.6522 15.9635ZM14.3478 9.83307C14.3478 13.4852 17.2174 16.3548 20.8696 16.3548C24.5217 16.3548 27.3913 13.4852 27.3913 9.83307C27.3913 6.1809 24.5217 3.31133 20.8696 3.31133C17.2174 3.31133 14.3478 6.1809 14.3478 9.83307ZM7.82609 21.5722C10.0435 21.5722 11.7391 19.8766 11.7391 17.6592C11.7391 15.4418 10.0435 13.7461 7.82609 13.7461C5.6087 13.7461 3.91304 15.4418 3.91304 17.6592C3.91304 19.8766 5.6087 21.5722 7.82609 21.5722Z" fill="#164789"/>
</svg>
