<svg width="30" height="37" viewBox="0 0 30 37" fill="none" xmlns="http://www.w3.org/2000/svg">
<path d="M8.18182 0.276367C9.14624 0.276367 10.0712 0.659483 10.7531 1.34143C11.4351 2.02338 11.8182 2.94831 11.8182 3.91273C11.8182 4.87715 11.4351 5.80208 10.7531 6.48403C10.0712 7.16598 9.14624 7.54909 8.18182 7.54909C7.21739 7.54909 6.29247 7.16598 5.61052 6.48403C4.92857 5.80208 4.54545 4.87715 4.54545 3.91273C4.54545 2.94831 4.92857 2.02338 5.61052 1.34143C6.29247 0.659483 7.21739 0.276367 8.18182 0.276367ZM5.45455 36.64V25.7309H0L4.72727 11.9127C5.27273 10.4582 6.54545 9.36728 8.18182 9.36728C9.81818 9.36728 11.2727 10.4582 11.6364 11.9127L16.3636 25.7309H10.9091V36.64H5.45455ZM20.9091 18.4582C20.9091 17.4938 21.2922 16.5688 21.9742 15.8869C22.6561 15.2049 23.581 14.8218 24.5455 14.8218C25.5099 14.8218 26.4348 15.2049 27.1168 15.8869C27.7987 16.5688 28.1818 17.4938 28.1818 18.4582C28.1818 19.4226 27.7987 20.3475 27.1168 21.0295C26.4348 21.7114 25.5099 22.0945 24.5455 22.0945C23.581 22.0945 22.6561 21.7114 21.9742 21.0295C21.2922 20.3475 20.9091 19.4226 20.9091 18.4582ZM19.0909 23.9127H30V31.1855H27.2727V36.64H21.8182V31.1855H19.0909V23.9127Z" fill="#164789"/>
</svg>
