<svg width="30" height="31" viewBox="0 0 30 31" fill="none" xmlns="http://www.w3.org/2000/svg">
<path d="M14.145 12.4781C14.205 12.6431 14.25 12.7931 14.25 12.9731V20.8031C14.25 21.5531 13.965 22.2731 13.455 22.8281L9.27 27.4031L4.17 22.3031L6 20.4731L10.2 2.26314C10.38 1.51314 11.055 0.973145 11.835 0.973145C12.75 0.973145 13.5 1.72314 13.5 2.63814V10.0781C13.26 10.0181 13.005 9.97314 12.75 9.97314C11.1 9.97314 9.75 11.3231 9.75 12.9731V17.4731C9.75 17.8931 10.08 18.2231 10.5 18.2231C10.92 18.2231 11.25 17.8931 11.25 17.4731V12.9731C11.25 12.1481 11.925 11.4731 12.75 11.4731C13.035 11.4731 13.275 11.5781 13.5 11.7131C13.68 11.8181 13.815 11.9531 13.95 12.1031C13.995 12.1631 14.04 12.2231 14.07 12.2981C14.1 12.3581 14.13 12.4181 14.145 12.4781ZM0 26.4731L6 30.9731L7.755 29.0681L2.58 23.8931L0 26.4731ZM24 20.4731L19.8 2.26314C19.62 1.51314 18.945 0.973145 18.165 0.973145C17.25 0.973145 16.5 1.72314 16.5 2.63814V10.0781C16.74 10.0181 16.995 9.97314 17.25 9.97314C18.9 9.97314 20.25 11.3231 20.25 12.9731V17.4731C20.25 17.8931 19.92 18.2231 19.5 18.2231C19.08 18.2231 18.75 17.8931 18.75 17.4731V12.9731C18.75 12.1481 18.075 11.4731 17.25 11.4731C16.965 11.4731 16.725 11.5781 16.5 11.7131C16.32 11.8181 16.185 11.9531 16.065 12.1031C16.02 12.1631 15.96 12.2231 15.93 12.2981C15.9 12.3581 15.87 12.4181 15.855 12.4781C15.795 12.6431 15.75 12.7931 15.75 12.9731V20.8031C15.75 21.5531 16.035 22.2731 16.545 22.8281L20.73 27.4031L25.83 22.3031L24 20.4731ZM27.42 23.8931L22.245 29.0681L24 30.9731L30 26.4731L27.42 23.8931Z" fill="#164789"/>
</svg>
