<svg width="30" height="31" viewBox="0 0 30 31" fill="none" xmlns="http://www.w3.org/2000/svg">
<path d="M13.6364 0.973389H2.72727C1.22727 0.973389 0 2.20066 0 3.70066V20.0643L4.09091 15.9734H10.9091V14.6098C10.9091 11.6098 13.35 9.15521 16.3636 9.15521V3.70066C16.3636 2.20066 15.1364 0.973389 13.6364 0.973389ZM13.6364 5.0643H11.5909C11.1273 6.68703 10.2818 8.20066 9.10909 9.50975L9.08182 9.53703L10.8 11.2416L10.2955 12.6188L8.18182 10.5188L4.77273 13.9279L3.83182 12.9325L7.28182 9.53703C6.43636 8.59612 5.75455 7.54612 5.26364 6.42793H6.61364C7.03636 7.24612 7.55455 8.02339 8.18182 8.71884C9.16364 7.62793 9.87273 6.38702 10.3227 5.0643H2.72727V3.70066H7.5V2.33703H8.86364V3.70066H13.6364V5.0643ZM27.2727 11.8825H16.3636C14.8636 11.8825 13.6364 13.1098 13.6364 14.6098V24.1552C13.6364 25.6552 14.8636 26.8825 16.3636 26.8825H25.9091L30 30.9734V14.6098C30 13.1098 28.7727 11.8825 27.2727 11.8825ZM25.4045 25.5188L24.2455 22.4507H19.3909L18.2455 25.5188H16.2L20.7955 13.2461H22.8409L27.45 25.5188H25.4045ZM21.8182 15.9734L23.4818 20.4052H20.1682L21.8182 15.9734Z" fill="#164789"/>
</svg>
