<svg width="75" height="46" viewBox="0 0 75 46" fill="none" xmlns="http://www.w3.org/2000/svg">
<g clip-path="url(#clip0_44_41234)">
<path d="M66.5225 0.0186768H7.58766C7.3422 0.0186768 7.09631 0.0186768 6.8513 0.0201081C6.64418 0.0215828 6.43754 0.0238817 6.23091 0.0295203C5.78025 0.0417085 5.32573 0.068297 4.88071 0.148279C4.42857 0.22965 4.00784 0.362375 3.59739 0.571353C3.19388 0.776557 2.82446 1.04496 2.50432 1.36523C2.18404 1.68551 1.91564 2.05432 1.71048 2.45827C1.50146 2.86872 1.36864 3.28958 1.28784 3.74206C1.20743 4.18721 1.18066 4.64164 1.16852 5.09183C1.16296 5.29846 1.16058 5.5051 1.15923 5.71169C1.1578 5.95723 1.15828 6.2026 1.15828 6.44858V39.5509C1.15828 39.7969 1.1578 40.0418 1.15923 40.2879C1.16058 40.4944 1.16296 40.7011 1.16852 40.9077C1.18066 41.3575 1.20743 41.8119 1.28784 42.257C1.36864 42.7096 1.50146 43.1303 1.71048 43.5408C1.91564 43.9447 2.18404 44.314 2.50432 44.6338C2.82446 44.9546 3.19388 45.223 3.59739 45.4277C4.00784 45.6372 4.42857 45.77 4.88071 45.8513C5.32573 45.9308 5.78025 45.9578 6.23091 45.97C6.43754 45.9747 6.64418 45.9775 6.8513 45.9784C7.09631 45.9803 7.3422 45.9803 7.58766 45.9803H66.5225C66.7675 45.9803 67.0134 45.9803 67.2584 45.9784C67.465 45.9775 67.6717 45.9747 67.8792 45.97C68.3289 45.9578 68.7834 45.9308 69.2295 45.8513C69.681 45.77 70.1018 45.6372 70.5123 45.4277C70.9163 45.223 71.2846 44.9546 71.6054 44.6338C71.9252 44.314 72.1935 43.9447 72.3992 43.5408C72.6087 43.1303 72.7414 42.7096 72.8218 42.257C72.9023 41.8119 72.9284 41.3575 72.9406 40.9077C72.9462 40.7011 72.949 40.4944 72.95 40.2879C72.9519 40.0418 72.9519 39.7969 72.9519 39.5509V6.44858C72.9519 6.2026 72.9519 5.95723 72.95 5.71169C72.949 5.5051 72.9462 5.29846 72.9406 5.09183C72.9284 4.64164 72.9023 4.18721 72.8218 3.74206C72.7414 3.28958 72.6087 2.86872 72.3992 2.45827C72.1935 2.05432 71.9252 1.68551 71.6054 1.36523C71.2846 1.04496 70.9163 0.776557 70.5123 0.571353C70.1018 0.362375 69.681 0.22965 69.2295 0.148279C68.7834 0.068297 68.3289 0.0417085 67.8792 0.0295203C67.6717 0.0238817 67.465 0.0215828 67.2584 0.0201081C67.0134 0.0186768 66.7675 0.0186768 66.5225 0.0186768Z" fill="black"/>
<path d="M66.5217 1.55066L67.2467 1.55205C67.4431 1.55344 67.6395 1.55556 67.837 1.56094C68.1806 1.57022 68.5824 1.58883 68.957 1.65597C69.2826 1.71461 69.5557 1.80379 69.8178 1.93721C70.0765 2.06868 70.3135 2.24096 70.5205 2.44764C70.7283 2.65571 70.9008 2.89314 71.034 3.15473C71.1666 3.41476 71.2553 3.68654 71.3136 4.01454C71.3805 4.38504 71.399 4.78799 71.4085 5.13364C71.4138 5.32874 71.4163 5.52384 71.4173 5.72357C71.4192 5.96513 71.4191 6.20655 71.4191 6.44858V39.5509C71.4191 39.7929 71.4192 40.0339 71.4173 40.2807C71.4164 40.4757 71.4138 40.6708 71.4084 40.8662C71.399 41.2114 71.3805 41.6141 71.3127 41.989C71.2553 42.3125 71.1667 42.5843 71.0333 42.8456C70.9005 43.1066 70.7282 43.3437 70.5214 43.5505C70.3132 43.7587 70.077 43.9305 69.8152 44.0632C69.555 44.1959 69.2824 44.285 68.96 44.343C68.5779 44.4111 68.1592 44.4299 67.8438 44.4384C67.6454 44.4429 67.448 44.4456 67.2457 44.4465C67.0047 44.4484 66.7628 44.4484 66.5217 44.4484H7.58689C7.58368 44.4484 7.58056 44.4484 7.57731 44.4484C7.33901 44.4484 7.10023 44.4484 6.8576 44.4465C6.65977 44.4456 6.46237 44.4429 6.27152 44.4386C5.94899 44.4299 5.53004 44.4112 5.15099 44.3435C4.82582 44.285 4.55321 44.1959 4.28966 44.0614C4.03033 43.9299 3.79424 43.7583 3.586 43.5497C3.37937 43.3434 3.20765 43.107 3.07488 42.8457C2.94198 42.5846 2.85306 42.312 2.7946 41.9846C2.72702 41.6105 2.70845 41.2093 2.69917 40.8666C2.69388 40.6703 2.69167 40.4741 2.69041 40.279L2.68945 39.703L2.6895 39.5509V6.44858L2.68945 6.29651L2.69036 5.72175C2.69167 5.52548 2.69388 5.32926 2.69917 5.13316C2.70845 4.79003 2.72702 4.38873 2.79516 4.01146C2.8531 3.68706 2.94198 3.41441 3.07557 3.15204C3.2073 2.8927 3.37932 2.65597 3.58705 2.44829C3.79394 2.24131 4.0308 2.06924 4.29179 1.93652C4.55251 1.80375 4.82564 1.71461 5.15082 1.6561C5.52548 1.58879 5.92761 1.57022 6.272 1.5609C6.46831 1.55556 6.66462 1.55344 6.85946 1.55209L7.58689 1.55066H66.5217" fill="white"/>
<path d="M20.7574 15.4776C21.3721 14.7087 21.7893 13.6763 21.6793 12.6213C20.7794 12.6661 19.6813 13.215 19.0455 13.9845C18.4747 14.6434 17.9695 15.719 18.1012 16.7298C19.1113 16.8174 20.1205 16.2249 20.7574 15.4776Z" fill="black"/>
<path d="M21.667 16.9271C20.2001 16.8397 18.9528 17.7597 18.2522 17.7597C17.5513 17.7597 16.4785 16.9712 15.3182 16.9924C13.808 17.0146 12.4068 17.8685 11.6404 19.2265C10.0641 21.9433 11.2244 25.9733 12.7573 28.186C13.5016 29.2806 14.3987 30.486 15.5808 30.4427C16.6977 30.3988 17.1354 29.7195 18.493 29.7195C19.8496 29.7195 20.244 30.4427 21.4262 30.4208C22.6523 30.3988 23.4188 29.3255 24.1631 28.2298C25.0171 26.9819 25.3667 25.777 25.3887 25.7108C25.3667 25.6889 23.0245 24.7904 23.0028 22.0962C22.9807 19.8403 24.8416 18.7673 24.9292 18.7007C23.8783 17.1464 22.2363 16.9712 21.667 16.9271Z" fill="black"/>
<path d="M34.44 13.8741C37.6285 13.8741 39.8487 16.072 39.8487 19.2718C39.8487 22.4831 37.5828 24.6923 34.3601 24.6923H30.8299V30.3063H28.2793V13.8741H34.44V13.8741ZM30.8299 22.5514H33.7565C35.9771 22.5514 37.241 21.3558 37.241 19.2832C37.241 17.2108 35.9771 16.0265 33.7679 16.0265H30.8299V22.5514V22.5514Z" fill="black"/>
<path d="M40.5156 26.9016C40.5156 24.8061 42.1213 23.5194 44.9684 23.36L48.2477 23.1665V22.2442C48.2477 20.9118 47.348 20.1147 45.8452 20.1147C44.4214 20.1147 43.5332 20.7978 43.317 21.8683H40.994C41.1306 19.7046 42.9753 18.1104 45.9361 18.1104C48.8399 18.1104 50.6959 19.6477 50.6959 22.0504V30.3064H48.3387V28.3364H48.282C47.5875 29.6687 46.0728 30.5113 44.5014 30.5113C42.1555 30.5113 40.5156 29.0537 40.5156 26.9016ZM48.2477 25.8198V24.8747L45.2983 25.0568C43.8293 25.1593 42.9981 25.8084 42.9981 26.8333C42.9981 27.8808 43.8635 28.5641 45.1845 28.5641C46.9039 28.5641 48.2477 27.3798 48.2477 25.8198Z" fill="black"/>
<path d="M52.9207 34.7134V32.7205C53.1025 32.766 53.5124 32.766 53.7176 32.766C54.8562 32.766 55.4712 32.2878 55.8468 31.058C55.8468 31.0351 56.0634 30.3292 56.0634 30.3178L51.7363 18.3267H54.4007L57.4301 28.0745H57.4753L60.5047 18.3267H63.101L58.614 30.9326C57.5895 33.8365 56.4052 34.7703 53.9227 34.7703C53.7176 34.7703 53.1026 34.7474 52.9207 34.7134Z" fill="black"/>
</g>
<defs>
<clipPath id="clip0_44_41234">
<rect width="74.1111" height="46" fill="white"/>
</clipPath>
</defs>
</svg>
