<svg width="19" height="13" viewBox="0 0 19 13" fill="none" xmlns="http://www.w3.org/2000/svg">
<path d="M8.26735 12.0708L0.408588 3.08791C-0.518864 2.031 0.234896 0.371094 1.64246 0.371094H17.36C17.675 0.370824 17.9834 0.461361 18.2483 0.631863C18.5132 0.802366 18.7233 1.04561 18.8535 1.33245C18.9837 1.6193 19.0284 1.9376 18.9824 2.24923C18.9363 2.56086 18.8015 2.85261 18.5939 3.08955L10.7351 12.0691C10.5813 12.2451 10.3916 12.3862 10.1788 12.4828C9.96599 12.5795 9.73496 12.6295 9.50122 12.6295C9.26749 12.6295 9.03646 12.5795 8.82364 12.4828C8.61083 12.3862 8.42115 12.2451 8.26735 12.0691V12.0708Z" fill="black"/>
</svg>
