<svg width="61" height="61" viewBox="0 0 61 61" fill="none" xmlns="http://www.w3.org/2000/svg">
<path d="M47.0273 60.3336H51.5545C53.8455 60.3336 55.7273 58.5609 56 56.3245L60.5 11.3791H46.8636V0.333618H41.4909V11.3791H27.9364L28.7545 17.7609C33.4182 19.0427 37.7818 21.3609 40.4 23.9245C44.3273 27.7973 47.0273 31.8063 47.0273 38.3518V60.3336ZM0.5 57.6063V54.8791H41.4909V57.6063C41.4909 59.0791 40.2636 60.3336 38.6818 60.3336H3.22727C1.72727 60.3336 0.5 59.0791 0.5 57.6063ZM41.4909 38.5154C41.4909 16.6973 0.5 16.6973 0.5 38.5154H41.4909ZM0.5 43.97H41.4091V49.4245H0.5V43.97Z" fill="#164789"/>
</svg>
