<svg width="19" height="20" viewBox="0 0 19 20" fill="none" xmlns="http://www.w3.org/2000/svg">
<path d="M16.5 18H2.5V7H16.5M16.5 2H15.5V0H13.5V2H5.5V0H3.5V2H2.5C1.39 2 0.5 2.9 0.5 4V18C0.5 18.5304 0.710714 19.0391 1.08579 19.4142C1.46086 19.7893 1.96957 20 2.5 20H16.5C17.0304 20 17.5391 19.7893 17.9142 19.4142C18.2893 19.0391 18.5 18.5304 18.5 18V4C18.5 3.46957 18.2893 2.96086 17.9142 2.58579C17.5391 2.21071 17.0304 2 16.5 2ZM14.03 10.06L12.97 9L8.09 13.88L5.97 11.76L4.91 12.82L8.09 16L14.03 10.06Z" fill="white"/>
</svg>
