<svg width="51" height="61" viewBox="0 0 51 61" fill="none" xmlns="http://www.w3.org/2000/svg">
<path d="M25.4996 16.6973C28.5268 16.6973 30.9541 14.2427 30.9541 11.2427C30.9541 10.2063 30.6814 9.2518 30.1632 8.43362L25.4996 0.333618L20.8359 8.43362C20.3177 9.2518 20.045 10.2063 20.045 11.2427C20.045 12.6893 20.6197 14.0767 21.6426 15.0997C22.6655 16.1226 24.0529 16.6973 25.4996 16.6973ZM38.045 43.97L35.1268 41.0245L32.1814 43.97C28.6359 47.4882 22.4177 47.5154 18.845 43.97L15.9541 41.0245L12.9541 43.97C11.1814 45.7154 8.80865 46.6973 6.29956 46.6973C4.30865 46.6973 2.48137 46.07 0.954102 45.0336V57.6063C0.954102 58.3297 1.24144 59.0234 1.7529 59.5348C2.26436 60.0463 2.95806 60.3336 3.68137 60.3336H47.3177C48.0411 60.3336 48.7347 60.0463 49.2462 59.5348C49.7577 59.0234 50.045 58.3297 50.045 57.6063V45.0336C48.5177 46.07 46.6905 46.6973 44.6996 46.6973C42.1905 46.6973 39.8177 45.7154 38.045 43.97ZM41.8632 24.8791H28.2268V19.4245H22.7723V24.8791H9.13592C6.96597 24.8791 4.88489 25.7411 3.3505 27.2755C1.81611 28.8099 0.954102 30.8909 0.954102 33.0609V37.2609C0.954102 40.2063 3.3541 42.6063 6.29956 42.6063C7.77228 42.6063 9.13592 42.0609 10.0632 41.0518L15.9541 35.2427L21.7086 41.0518C23.7268 43.07 27.245 43.07 29.2632 41.0518L35.045 35.2427L40.9086 41.0518C41.8632 42.0609 43.2268 42.6063 44.6723 42.6063C47.6177 42.6063 50.045 40.2063 50.045 37.2609V33.0609C50.045 30.8909 49.183 28.8099 47.6486 27.2755C46.1142 25.7411 44.0331 24.8791 41.8632 24.8791Z" fill="#164789"/>
</svg>
