<svg width="22" height="25" viewBox="0 0 22 25" fill="none" xmlns="http://www.w3.org/2000/svg">
<path d="M8.59302 0C8.38582 0 8.18711 0.08231 8.0406 0.228823C7.89408 0.375336 7.81177 0.57405 7.81177 0.78125C7.81177 0.98845 7.89408 1.18716 8.0406 1.33368C8.18711 1.48019 8.38582 1.5625 8.59302 1.5625H9.37427V3.23438C6.63748 3.62994 4.15204 5.0473 2.41802 7.2013C0.684008 9.35529 -0.169903 12.0861 0.0280968 14.8442C0.226096 17.6023 1.46131 20.1832 3.48522 22.0674C5.50913 23.9516 8.17154 24.9994 10.9368 25C13.0335 24.9999 15.086 24.3972 16.8499 23.2635C18.6137 22.1299 20.0145 20.5132 20.8855 18.6059C21.7565 16.6987 22.0609 14.5813 21.7625 12.5059C21.4641 10.4305 20.5755 8.48461 19.2024 6.9C19.2093 6.89386 19.216 6.88761 19.2227 6.88125L19.7758 6.32813L20.3274 6.88125C20.3995 6.95587 20.4857 7.01538 20.581 7.05633C20.6763 7.09727 20.7788 7.11883 20.8826 7.11973C20.9863 7.12063 21.0892 7.10086 21.1852 7.06158C21.2812 7.0223 21.3684 6.96429 21.4418 6.89093C21.5151 6.81758 21.5731 6.73035 21.6124 6.63434C21.6517 6.53833 21.6715 6.43545 21.6706 6.33172C21.6697 6.22798 21.6481 6.12547 21.6072 6.03015C21.5662 5.93484 21.5067 5.84863 21.4321 5.77656L19.2227 3.56563C19.1506 3.49101 19.0644 3.43149 18.9691 3.39055C18.8738 3.3496 18.7713 3.32805 18.6676 3.32715C18.5638 3.32625 18.4609 3.34601 18.3649 3.3853C18.2689 3.42458 18.1817 3.48259 18.1083 3.55594C18.035 3.6293 17.977 3.71652 17.9377 3.81254C17.8984 3.90855 17.8786 4.01142 17.8795 4.11516C17.8804 4.21889 17.902 4.32141 17.9429 4.41672C17.9839 4.51204 18.0434 4.59824 18.118 4.67031L18.6711 5.22344L18.118 5.77656C18.1117 5.78274 18.1054 5.78899 18.0993 5.79531C16.5175 4.42152 14.5732 3.5329 12.4993 3.23594V1.5625H13.2805C13.4877 1.5625 13.6864 1.48019 13.833 1.33368C13.9795 1.18716 14.0618 0.98845 14.0618 0.78125C14.0618 0.57405 13.9795 0.375336 13.833 0.228823C13.6864 0.08231 13.4877 0 13.2805 0L8.59302 0ZM11.718 8.75V14.0625C11.718 14.2697 11.6357 14.4684 11.4892 14.6149C11.3427 14.7614 11.144 14.8438 10.9368 14.8438H5.46802C5.26082 14.8438 5.06211 14.7614 4.9156 14.6149C4.76908 14.4684 4.68677 14.2697 4.68677 14.0625C4.68677 13.8553 4.76908 13.6566 4.9156 13.5101C5.06211 13.3636 5.26082 13.2812 5.46802 13.2812H10.1555V8.75C10.1555 8.5428 10.2378 8.34409 10.3843 8.19757C10.5309 8.05106 10.7296 7.96875 10.9368 7.96875C11.144 7.96875 11.3427 8.05106 11.4892 8.19757C11.6357 8.34409 11.718 8.5428 11.718 8.75Z" fill="#1B4688"/>
</svg>
