<svg width="61" height="61" viewBox="0 0 61 61" fill="none" xmlns="http://www.w3.org/2000/svg">
<path d="M47.9783 25.1162L39.6304 20.4206V10.7684H43.5435V18.0728L49.8043 21.7249L47.9783 25.1162ZM55.8044 30.8554C57.1087 32.6814 57.8913 34.7684 57.8913 36.8554V60.3336H52.6739V52.5075H5.71739V60.3336H0.5V21.2032H5.71739V44.6814H26.587V27.9858C25.0217 25.1162 23.9783 21.9858 23.9783 18.5945C23.9783 8.42057 32.0652 0.333618 42.2391 0.333618C52.413 0.333618 60.5 8.42057 60.5 18.5945C60.5 23.2901 58.6739 27.4641 55.8044 30.8554ZM29.1957 18.5945C29.1957 25.8988 34.9348 31.638 42.2391 31.638C49.5435 31.638 55.2826 25.8988 55.2826 18.5945C55.2826 11.2901 49.5435 5.55101 42.2391 5.55101C34.9348 5.55101 29.1957 11.2901 29.1957 18.5945ZM16.1522 42.0728C20.587 42.0728 23.9783 38.6814 23.9783 34.2467C23.9783 29.8119 20.587 26.4206 16.1522 26.4206C11.7174 26.4206 8.32609 29.8119 8.32609 34.2467C8.32609 38.6814 11.7174 42.0728 16.1522 42.0728Z" fill="#164789"/>
</svg>
