<svg width="61" height="61" viewBox="0 0 61 61" fill="none" xmlns="http://www.w3.org/2000/svg">
<path d="M7.45455 50.17L11.3 54.0154L16.2091 49.1336L12.3364 45.2609M30.5 14.47C21.4727 14.47 14.1364 21.8063 14.1364 30.8336C14.1364 39.8609 21.4727 47.1973 30.5 47.1973C39.5273 47.1973 46.8636 39.8609 46.8636 30.8336C46.8636 21.7791 39.5273 14.47 30.5 14.47ZM52.3182 33.5609H60.5V28.1063H52.3182M44.7909 49.1336L49.7 54.0154L53.5455 50.17L48.6636 45.2609M53.5455 11.7427L49.7 7.92453L44.7909 12.8063L48.6636 16.6791M33.2273 0.833618H27.7727V9.01544H33.2273M16.2091 12.8063L11.3 7.92453L7.45455 11.7427L12.3364 16.6791L16.2091 12.8063ZM0.5 33.5609H8.68182V28.1063H0.5M33.2273 52.6518H27.7727V60.8336H33.2273" fill="#164789"/>
</svg>
