<svg width="51" height="61" viewBox="0 0 51 61" fill="none" xmlns="http://www.w3.org/2000/svg">
<path d="M14.25 0.333618C15.8413 0.333618 17.3674 0.965759 18.4926 2.09098C19.6179 3.2162 20.25 4.74232 20.25 6.33362C20.25 7.92492 19.6179 9.45104 18.4926 10.5763C17.3674 11.7015 15.8413 12.3336 14.25 12.3336C12.6587 12.3336 11.1326 11.7015 10.0074 10.5763C8.88214 9.45104 8.25 7.92492 8.25 6.33362C8.25 4.74232 8.88214 3.2162 10.0074 2.09098C11.1326 0.965759 12.6587 0.333618 14.25 0.333618ZM9.75 60.3336V42.3336H0.75L8.55 19.5336C9.45 17.1336 11.55 15.3336 14.25 15.3336C16.95 15.3336 19.35 17.1336 19.95 19.5336L27.75 42.3336H18.75V60.3336H9.75ZM35.25 30.3336C35.25 28.7423 35.8821 27.2162 37.0074 26.091C38.1326 24.9658 39.6587 24.3336 41.25 24.3336C42.8413 24.3336 44.3674 24.9658 45.4926 26.091C46.6179 27.2162 47.25 28.7423 47.25 30.3336C47.25 31.9249 46.6179 33.451 45.4926 34.5763C44.3674 35.7015 42.8413 36.3336 41.25 36.3336C39.6587 36.3336 38.1326 35.7015 37.0074 34.5763C35.8821 33.451 35.25 31.9249 35.25 30.3336ZM32.25 39.3336H50.25V51.3336H45.75V60.3336H36.75V51.3336H32.25V39.3336Z" fill="#164789"/>
</svg>
