<svg width="55" height="61" viewBox="0 0 55 61" fill="none" xmlns="http://www.w3.org/2000/svg">
<path d="M18.5 60.8336H42.5V53.3336C49.73 48.4436 54.5 40.1936 54.5 30.8336V6.83362C54.5 5.24232 53.8679 3.7162 52.7426 2.59098C51.6174 1.46576 50.0913 0.833618 48.5 0.833618H36.5C33.17 0.833618 30.5 3.53362 30.5 6.83362V30.8336H0.5C0.5 40.1036 6.5 48.8336 18.5 53.3336V60.8336ZM7.37 36.8336H47.63C45.92 42.5636 41.81 47.3336 36.5 49.8236V54.8336H24.5V49.8236C18.5 48.8336 9.08 42.5636 7.37 36.8336ZM36.5 6.83362H48.5V30.8336H36.5V6.83362ZM39.5 9.83362V18.8336H45.5V9.83362H39.5Z" fill="#164789"/>
</svg>
