<svg width="55" height="61" viewBox="0 0 55 61" fill="none" xmlns="http://www.w3.org/2000/svg">
<path d="M12.5 27.8336H27.5V42.8336H12.5M48.5 54.8336H6.5V21.8336H48.5M48.5 6.83362H45.5V0.833618H39.5V6.83362H15.5V0.833618H9.5V6.83362H6.5C3.17 6.83362 0.5 9.53362 0.5 12.8336V54.8336C0.5 56.4249 1.13214 57.951 2.25736 59.0763C3.38258 60.2015 4.9087 60.8336 6.5 60.8336H48.5C50.0913 60.8336 51.6174 60.2015 52.7426 59.0763C53.8679 57.951 54.5 56.4249 54.5 54.8336V12.8336C54.5 11.2423 53.8679 9.7162 52.7426 8.59098C51.6174 7.46576 50.0913 6.83362 48.5 6.83362Z" fill="#164789"/>
</svg>
