<svg width="141" height="140" viewBox="0 0 141 140" fill="none" xmlns="http://www.w3.org/2000/svg">
<g style="mix-blend-mode:multiply">
<mask id="path-1-inside-1_1002_4623" fill="white">
<path d="M56.3333 101.5V38.5L98.5833 70M70.4167 0C61.1694 0 52.0127 1.8106 43.4694 5.32843C34.926 8.84626 27.1634 14.0024 20.6246 20.5025C7.41888 33.6301 0 51.4348 0 70C0 88.5652 7.41888 106.37 20.6246 119.497C27.1634 125.998 34.926 131.154 43.4694 134.672C52.0127 138.189 61.1694 140 70.4167 140C89.0923 140 107.003 132.625 120.209 119.497C133.414 106.37 140.833 88.5652 140.833 70C140.833 60.8075 139.012 51.7049 135.473 43.2122C131.934 34.7194 126.748 27.0026 120.209 20.5025C113.67 14.0024 105.907 8.84626 97.364 5.32843C88.8206 1.8106 79.6639 0 70.4167 0Z"/>
</mask>
<path d="M56.3333 101.5V38.5L98.5833 70M70.4167 0C61.1694 0 52.0127 1.8106 43.4694 5.32843C34.926 8.84626 27.1634 14.0024 20.6246 20.5025C7.41888 33.6301 0 51.4348 0 70C0 88.5652 7.41888 106.37 20.6246 119.497C27.1634 125.998 34.926 131.154 43.4694 134.672C52.0127 138.189 61.1694 140 70.4167 140C89.0923 140 107.003 132.625 120.209 119.497C133.414 106.37 140.833 88.5652 140.833 70C140.833 60.8075 139.012 51.7049 135.473 43.2122C131.934 34.7194 126.748 27.0026 120.209 20.5025C113.67 14.0024 105.907 8.84626 97.364 5.32843C88.8206 1.8106 79.6639 0 70.4167 0Z" fill="#484848"/>
<path d="M56.3333 38.5L56.9311 37.6983L55.3333 36.5071V38.5H56.3333ZM20.6246 20.5025L21.3296 21.2117L20.6246 20.5025ZM0 70H-1H0ZM20.6246 119.497L21.3296 118.788L20.6246 119.497ZM70.4167 140V141V140ZM57.3333 101.5V38.5H55.3333V101.5H57.3333ZM55.7356 39.3017L97.9856 70.8017L99.181 69.1983L56.9311 37.6983L55.7356 39.3017ZM70.4167 -1C61.0389 -1 51.7529 0.836149 43.0886 4.40375L43.8501 6.25311C52.2726 2.78506 61.2999 1 70.4167 1V-1ZM43.0886 4.40375C34.4244 7.97136 26.5515 13.2006 19.9196 19.7933L21.3296 21.2117C27.7752 14.8042 35.4277 9.72116 43.8501 6.25311L43.0886 4.40375ZM19.9196 19.7933C6.52568 33.1079 -1 51.1677 -1 70H1C1 51.702 8.31207 34.1522 21.3296 21.2117L19.9196 19.7933ZM-1 70C-1 88.8323 6.52568 106.892 19.9196 120.207L21.3296 118.788C8.31207 105.848 1 88.298 1 70H-1ZM19.9196 120.207C26.5515 126.799 34.4244 132.029 43.0886 135.596L43.8501 133.747C35.4277 130.279 27.7752 125.196 21.3296 118.788L19.9196 120.207ZM43.0886 135.596C51.7529 139.164 61.0389 141 70.4167 141V139C61.2999 139 52.2726 137.215 43.8501 133.747L43.0886 135.596ZM70.4167 141C89.3556 141 107.52 133.521 120.914 120.207L119.504 118.788C106.486 131.729 88.829 139 70.4167 139V141ZM120.914 120.207C134.308 106.892 141.833 88.8323 141.833 70H139.833C139.833 88.298 132.521 105.848 119.504 118.788L120.914 120.207ZM141.833 70C141.833 60.6753 139.986 51.4421 136.396 42.8275L134.55 43.5968C138.038 51.9678 139.833 60.9396 139.833 70H141.833ZM136.396 42.8275C132.807 34.213 127.546 26.386 120.914 19.7933L119.504 21.2117C125.949 27.6192 131.062 35.2257 134.55 43.5968L136.396 42.8275ZM120.914 19.7933C114.282 13.2006 106.409 7.97136 97.7447 4.40375L96.9832 6.25311C105.406 9.72116 113.058 14.8042 119.504 21.2117L120.914 19.7933ZM97.7447 4.40375C89.0805 0.836149 79.7944 -1 70.4167 -1V1C79.5334 1 88.5608 2.78506 96.9832 6.25311L97.7447 4.40375Z" fill="white" mask="url(#path-1-inside-1_1002_4623)"/>
</g>
</svg>
