<svg width="28" height="25" viewBox="0 0 28 25" fill="none" xmlns="http://www.w3.org/2000/svg">
<path d="M2.26932 12.5C2.26903 10.704 2.74155 8.93959 3.63936 7.38411C4.53718 5.82863 5.82865 4.53691 7.38395 3.63879C8.93925 2.74067 10.7036 2.26781 12.4996 2.26774C14.2956 2.26767 16.0599 2.74039 17.6153 3.63839C17.8288 3.75978 18.0816 3.79179 18.3187 3.72744C18.5557 3.66309 18.7576 3.50761 18.8804 3.29491C19.0032 3.08222 19.0369 2.82959 18.9742 2.59215C18.9114 2.35471 18.7572 2.15174 18.5454 2.02753C16.2404 0.696764 13.5608 0.163727 10.922 0.511084C8.28324 0.85844 5.83282 2.06678 3.95078 3.9487C2.06873 5.83062 0.860237 8.28096 0.512711 10.9197C0.165185 13.5584 0.69805 16.2381 2.02867 18.5432C3.35928 20.8482 5.41329 22.6498 7.87214 23.6685C10.331 24.6872 13.0573 24.8661 15.6282 24.1775C18.1991 23.4889 20.4709 21.9713 22.0914 19.8599C23.7119 17.7486 24.5904 15.1615 24.5907 12.5C24.5907 12.2533 24.4928 12.0168 24.3183 11.8423C24.1439 11.6679 23.9074 11.5699 23.6607 11.5699C23.414 11.5699 23.1775 11.6679 23.003 11.8423C22.8286 12.0168 22.7306 12.2533 22.7306 12.5C22.7306 15.2133 21.6528 17.8155 19.7341 19.7342C17.8155 21.6528 15.2133 22.7306 12.5 22.7306C9.78663 22.7306 7.18442 21.6528 5.26581 19.7342C3.34719 17.8155 2.26932 15.2133 2.26932 12.5Z" fill="#1B4688"/>
<path d="M26.1792 3.85787C26.2657 3.7714 26.3343 3.66874 26.3811 3.55576C26.4279 3.44278 26.4519 3.32168 26.4519 3.19939C26.4519 3.0771 26.4279 2.95601 26.3811 2.84302C26.3343 2.73004 26.2657 2.62738 26.1792 2.54091C26.0927 2.45444 25.9901 2.38584 25.8771 2.33904C25.7641 2.29225 25.643 2.26816 25.5207 2.26816C25.3984 2.26816 25.2773 2.29225 25.1643 2.33904C25.0514 2.38584 24.9487 2.45444 24.8622 2.54091L12.4999 14.9051L7.578 9.98138C7.49153 9.89491 7.38887 9.82632 7.27588 9.77952C7.1629 9.73272 7.04181 9.70863 6.91952 9.70863C6.79722 9.70863 6.67613 9.73272 6.56315 9.77952C6.45017 9.82632 6.34751 9.89491 6.26103 9.98138C6.17456 10.0679 6.10597 10.1705 6.05917 10.2835C6.01237 10.3965 5.98828 10.5176 5.98828 10.6399C5.98828 10.7622 6.01237 10.8833 6.05917 10.9962C6.10597 11.1092 6.17456 11.2119 6.26103 11.2983L11.8414 16.8787C11.9278 16.9653 12.0304 17.034 12.1434 17.0809C12.2564 17.1278 12.3775 17.1519 12.4999 17.1519C12.6222 17.1519 12.7433 17.1278 12.8563 17.0809C12.9693 17.034 13.072 16.9653 13.1584 16.8787L26.1792 3.85787Z" fill="#1B4688"/>
</svg>
