<svg width="23" height="22" viewBox="0 0 23 22" fill="none" xmlns="http://www.w3.org/2000/svg">
<path d="M17 1.99999H1V-7.62939e-06H17V1.99999ZM16.5 11H15V16L18.61 18.16L19.36 16.94L16.5 15.25V11ZM23 15C23 18.87 19.87 22 16 22C12.47 22 9.57 19.39 9.08 16H1V9.99999H0V7.99999L1 2.99999H17L18 7.99999V8.28999C20.89 9.15999 23 11.83 23 15ZM2.04 7.99999H15.96L15.36 4.99999H2.64L2.04 7.99999ZM3 14H9V9.99999H3V14ZM21 15C21 12.24 18.76 9.99999 16 9.99999C13.24 9.99999 11 12.24 11 15C11 17.76 13.24 20 16 20C18.76 20 21 17.76 21 15Z" fill="white"/>
</svg>
