<svg width="25" height="25" viewBox="0 0 25 25" fill="none" xmlns="http://www.w3.org/2000/svg">
<path d="M2.34375 0C1.72215 0 1.12601 0.24693 0.686468 0.686468C0.24693 1.12601 0 1.72215 0 2.34375L0 13.2812C0 13.9029 0.24693 14.499 0.686468 14.9385C1.12601 15.3781 1.72215 15.625 2.34375 15.625H9.375V17.1875H1.5625C1.1481 17.1875 0.750671 17.3521 0.457646 17.6451C0.16462 17.9382 0 18.3356 0 18.75L0 23.4375C0 23.8519 0.16462 24.2493 0.457646 24.5424C0.750671 24.8354 1.1481 25 1.5625 25H23.4375C23.8519 25 24.2493 24.8354 24.5424 24.5424C24.8354 24.2493 25 23.8519 25 23.4375V18.75C25 18.3356 24.8354 17.9382 24.5424 17.6451C24.2493 17.3521 23.8519 17.1875 23.4375 17.1875H15.625V15.625H22.6562C23.2779 15.625 23.874 15.3781 24.3135 14.9385C24.7531 14.499 25 13.9029 25 13.2812V2.34375C25 1.72215 24.7531 1.12601 24.3135 0.686468C23.874 0.24693 23.2779 0 22.6562 0L2.34375 0ZM2.34375 1.5625H22.6562C22.8635 1.5625 23.0622 1.64481 23.2087 1.79132C23.3552 1.93784 23.4375 2.13655 23.4375 2.34375V13.2812C23.4375 13.4885 23.3552 13.6872 23.2087 13.8337C23.0622 13.9802 22.8635 14.0625 22.6562 14.0625H2.34375C2.13655 14.0625 1.93784 13.9802 1.79132 13.8337C1.64481 13.6872 1.5625 13.4885 1.5625 13.2812V2.34375C1.5625 2.13655 1.64481 1.93784 1.79132 1.79132C1.93784 1.64481 2.13655 1.5625 2.34375 1.5625ZM18.75 19.5312C18.75 19.324 18.8323 19.1253 18.9788 18.9788C19.1253 18.8323 19.324 18.75 19.5312 18.75C19.7385 18.75 19.9372 18.8323 20.0837 18.9788C20.2302 19.1253 20.3125 19.324 20.3125 19.5312C20.3125 19.7385 20.2302 19.9372 20.0837 20.0837C19.9372 20.2302 19.7385 20.3125 19.5312 20.3125C19.324 20.3125 19.1253 20.2302 18.9788 20.0837C18.8323 19.9372 18.75 19.7385 18.75 19.5312ZM21.875 19.5312C21.875 19.324 21.9573 19.1253 22.1038 18.9788C22.2503 18.8323 22.449 18.75 22.6562 18.75C22.8635 18.75 23.0622 18.8323 23.2087 18.9788C23.3552 19.1253 23.4375 19.324 23.4375 19.5312C23.4375 19.7385 23.3552 19.9372 23.2087 20.0837C23.0622 20.2302 22.8635 20.3125 22.6562 20.3125C22.449 20.3125 22.2503 20.2302 22.1038 20.0837C21.9573 19.9372 21.875 19.7385 21.875 19.5312ZM2.34375 18.75H10.1562C10.3635 18.75 10.5622 18.8323 10.7087 18.9788C10.8552 19.1253 10.9375 19.324 10.9375 19.5312C10.9375 19.7385 10.8552 19.9372 10.7087 20.0837C10.5622 20.2302 10.3635 20.3125 10.1562 20.3125H2.34375C2.13655 20.3125 1.93784 20.2302 1.79132 20.0837C1.64481 19.9372 1.5625 19.7385 1.5625 19.5312C1.5625 19.324 1.64481 19.1253 1.79132 18.9788C1.93784 18.8323 2.13655 18.75 2.34375 18.75ZM1.5625 22.2656C1.5625 22.162 1.60366 22.0627 1.67691 21.9894C1.75017 21.9162 1.84952 21.875 1.95312 21.875H10.5469C10.6505 21.875 10.7498 21.9162 10.8231 21.9894C10.8963 22.0627 10.9375 22.162 10.9375 22.2656C10.9375 22.3692 10.8963 22.4686 10.8231 22.5418C10.7498 22.6151 10.6505 22.6562 10.5469 22.6562H1.95312C1.84952 22.6562 1.75017 22.6151 1.67691 22.5418C1.60366 22.4686 1.5625 22.3692 1.5625 22.2656Z" fill="#1B4688"/>
</svg>
