<svg width="11" height="18" viewBox="0 0 11 18" fill="none" xmlns="http://www.w3.org/2000/svg">
<path d="M0.5 12H2.5C2.5 13.08 3.87 14 5.5 14C7.13 14 8.5 13.08 8.5 12C8.5 10.9 7.46 10.5 5.26 9.96999C3.14 9.43999 0.5 8.77999 0.5 5.99999C0.5 4.20999 1.97 2.68999 4 2.17999V-7.62939e-06H7V2.17999C9.03 2.68999 10.5 4.20999 10.5 5.99999H8.5C8.5 4.91999 7.13 3.99999 5.5 3.99999C3.87 3.99999 2.5 4.91999 2.5 5.99999C2.5 7.09999 3.54 7.49999 5.74 8.02999C7.86 8.55999 10.5 9.21999 10.5 12C10.5 13.79 9.03 15.31 7 15.82V18H4V15.82C1.97 15.31 0.5 13.79 0.5 12Z" fill="white"/>
</svg>
