<svg width="61" height="61" viewBox="0 0 61 61" fill="none" xmlns="http://www.w3.org/2000/svg">
<path d="M27.7727 0.833618H5.95455C2.95455 0.833618 0.5 3.28816 0.5 6.28816V39.0154L8.68182 30.8336H22.3182V28.1063C22.3182 22.1063 27.2 17.1973 33.2273 17.1973V6.28816C33.2273 3.28816 30.7727 0.833618 27.7727 0.833618ZM27.7727 9.01544H23.6818C22.7545 12.2609 21.0636 15.2882 18.7182 17.9063L18.6636 17.9609L22.1 21.37L21.0909 24.1245L16.8636 19.9245L10.0455 26.7427L8.16364 24.7518L15.0636 17.9609C13.3727 16.0791 12.0091 13.9791 11.0273 11.7427H13.7273C14.5727 13.3791 15.6091 14.9336 16.8636 16.3245C18.8273 14.1427 20.2455 11.6609 21.1455 9.01544H5.95455V6.28816H15.5V3.56089H18.2273V6.28816H27.7727V9.01544ZM55.0455 22.6518H33.2273C30.2273 22.6518 27.7727 25.1063 27.7727 28.1063V47.1973C27.7727 50.1973 30.2273 52.6518 33.2273 52.6518H52.3182L60.5 60.8336V28.1063C60.5 25.1063 58.0455 22.6518 55.0455 22.6518ZM51.3091 49.9245L48.9909 43.7882H39.2818L36.9909 49.9245H32.9L42.0909 25.3791H46.1818L55.4 49.9245H51.3091ZM44.1364 30.8336L47.4636 39.6973H40.8364L44.1364 30.8336Z" fill="#164789"/>
</svg>
