<svg width="101" height="101" viewBox="0 0 101 101" fill="none" xmlns="http://www.w3.org/2000/svg">
<path d="M40.8301 73V28L70.8301 50.5M50.8301 0.5C44.264 0.5 37.7622 1.79329 31.6959 4.30602C25.6296 6.81876 20.1177 10.5017 15.4747 15.1447C6.09792 24.5215 0.830078 37.2392 0.830078 50.5C0.830078 63.7608 6.09792 76.4785 15.4747 85.8553C20.1177 90.4983 25.6296 94.1812 31.6959 96.694C37.7622 99.2067 44.264 100.5 50.8301 100.5C64.0909 100.5 76.8086 95.2322 86.1854 85.8553C95.5622 76.4785 100.83 63.7608 100.83 50.5C100.83 43.9339 99.5368 37.4321 97.0241 31.3658C94.5113 25.2995 90.8283 19.7876 86.1854 15.1447C81.5425 10.5017 76.0305 6.81876 69.9642 4.30602C63.898 1.79329 57.3962 0.5 50.8301 0.5Z" fill="#8AD5FF"/>
</svg>
