<svg width="40" height="41" viewBox="0 0 40 41" fill="none" xmlns="http://www.w3.org/2000/svg">
<path d="M16 29.5312V11.5312L28 20.5312M20 0.53125C17.3736 0.53125 14.7728 1.04857 12.3463 2.05366C9.91982 3.05875 7.71504 4.53194 5.85786 6.38911C2.10714 10.1398 0 15.2269 0 20.5312C0 25.8356 2.10714 30.9227 5.85786 34.6734C7.71504 36.5306 9.91982 38.0037 12.3463 39.0088C14.7728 40.0139 17.3736 40.5312 20 40.5312C25.3043 40.5312 30.3914 38.4241 34.1421 34.6734C37.8929 30.9227 40 25.8356 40 20.5312C40 17.9048 39.4827 15.3041 38.4776 12.8776C37.4725 10.4511 35.9993 8.24629 34.1421 6.38911C32.285 4.53194 30.0802 3.05875 27.6537 2.05366C25.2272 1.04857 22.6264 0.53125 20 0.53125Z" fill="#164789"/>
</svg>
