<svg width="142" height="141" viewBox="0 0 142 141" fill="none" xmlns="http://www.w3.org/2000/svg">
<g style="mix-blend-mode:multiply" opacity="0.7">
<mask id="path-1-inside-1_2242_19804" fill="white">
<path d="M56.9163 101.536V38.5359L99.1663 70.0359M70.9997 0.0358887C61.7524 0.0358887 52.5957 1.84649 44.0524 5.36432C35.509 8.88215 27.7464 14.0383 21.2076 20.5384C8.00188 33.666 0.583008 51.4707 0.583008 70.0359C0.583008 88.601 8.00188 106.406 21.2076 119.533C27.7464 126.033 35.509 131.19 44.0524 134.707C52.5957 138.225 61.7524 140.036 70.9997 140.036C89.6753 140.036 107.586 132.661 120.792 119.533C133.997 106.406 141.416 88.601 141.416 70.0359C141.416 60.8434 139.595 51.7408 136.056 43.248C132.517 34.7553 127.331 27.0385 120.792 20.5384C114.253 14.0383 106.49 8.88215 97.947 5.36432C89.4036 1.84649 80.2469 0.0358887 70.9997 0.0358887Z"/>
</mask>
<path d="M56.9163 101.536V38.5359L99.1663 70.0359M70.9997 0.0358887C61.7524 0.0358887 52.5957 1.84649 44.0524 5.36432C35.509 8.88215 27.7464 14.0383 21.2076 20.5384C8.00188 33.666 0.583008 51.4707 0.583008 70.0359C0.583008 88.601 8.00188 106.406 21.2076 119.533C27.7464 126.033 35.509 131.19 44.0524 134.707C52.5957 138.225 61.7524 140.036 70.9997 140.036C89.6753 140.036 107.586 132.661 120.792 119.533C133.997 106.406 141.416 88.601 141.416 70.0359C141.416 60.8434 139.595 51.7408 136.056 43.248C132.517 34.7553 127.331 27.0385 120.792 20.5384C114.253 14.0383 106.49 8.88215 97.947 5.36432C89.4036 1.84649 80.2469 0.0358887 70.9997 0.0358887Z" fill="#8AD5FF"/>
<path d="M56.9163 38.5359L57.5141 37.7342L55.9163 36.543V38.5359H56.9163ZM21.2076 20.5384L21.9126 21.2476L21.2076 20.5384ZM0.583008 70.0359H-0.416992H0.583008ZM21.2076 119.533L21.9126 118.824L21.2076 119.533ZM70.9997 140.036V141.036V140.036ZM57.9163 101.536V38.5359H55.9163V101.536H57.9163ZM56.3186 39.3376L98.5686 70.8376L99.7641 69.2342L57.5141 37.7342L56.3186 39.3376ZM70.9997 -0.964111C61.6219 -0.964111 52.3359 0.872037 43.6716 4.43964L44.4331 6.289C52.8556 2.82095 61.8829 1.03589 70.9997 1.03589V-0.964111ZM43.6716 4.43964C35.0074 8.00725 27.1345 13.2365 20.5026 19.8292L21.9126 21.2476C28.3582 14.8401 36.0107 9.75705 44.4331 6.289L43.6716 4.43964ZM20.5026 19.8292C7.10869 33.1438 -0.416992 51.2036 -0.416992 70.0359H1.58301C1.58301 51.7379 8.89508 34.1881 21.9126 21.2476L20.5026 19.8292ZM-0.416992 70.0359C-0.416992 88.8682 7.10869 106.928 20.5026 120.243L21.9126 118.824C8.89508 105.884 1.58301 88.3339 1.58301 70.0359H-0.416992ZM20.5026 120.243C27.1345 126.835 35.0074 132.065 43.6716 135.632L44.4331 133.783C36.0107 130.315 28.3582 125.232 21.9126 118.824L20.5026 120.243ZM43.6716 135.632C52.3359 139.2 61.6219 141.036 70.9997 141.036V139.036C61.8829 139.036 52.8556 137.251 44.4331 133.783L43.6716 135.632ZM70.9997 141.036C89.9386 141.036 108.103 133.557 121.497 120.243L120.087 118.824C107.069 131.765 89.412 139.036 70.9997 139.036V141.036ZM121.497 120.243C134.891 106.928 142.416 88.8682 142.416 70.0359H140.416C140.416 88.3339 133.104 105.884 120.087 118.824L121.497 120.243ZM142.416 70.0359C142.416 60.7112 140.569 51.478 136.979 42.8634L135.133 43.6327C138.621 52.0037 140.416 60.9755 140.416 70.0359H142.416ZM136.979 42.8634C133.39 34.2489 128.129 26.4219 121.497 19.8292L120.087 21.2476C126.532 27.6551 131.645 35.2616 135.133 43.6327L136.979 42.8634ZM121.497 19.8292C114.865 13.2365 106.992 8.00725 98.3277 4.43964L97.5662 6.289C105.989 9.75705 113.641 14.8401 120.087 21.2476L121.497 19.8292ZM98.3277 4.43964C89.6635 0.872037 80.3774 -0.964111 70.9997 -0.964111V1.03589C80.1164 1.03589 89.1438 2.82095 97.5662 6.289L98.3277 4.43964Z" fill="white" mask="url(#path-1-inside-1_2242_19804)"/>
</g>
</svg>
