<svg width="28" height="21" viewBox="0 0 28 21" fill="none" xmlns="http://www.w3.org/2000/svg">
<path d="M0.45638 2.96069C0.62441 2.22442 1.03747 1.56704 1.62792 1.0962C2.21836 0.625358 2.95119 0.368968 3.70638 0.369019H23.7064C24.4616 0.368968 25.1944 0.625358 25.7848 1.0962C26.3753 1.56704 26.7883 2.22442 26.9564 2.96069L13.7064 11.059L0.45638 2.96069ZM0.373047 4.86402V16.704L10.0447 10.774L0.373047 4.86402ZM11.6414 11.7524L0.69138 18.464C0.961924 19.0345 1.38892 19.5164 1.92268 19.8536C2.45644 20.1909 3.075 20.3696 3.70638 20.369H23.7064C24.3377 20.3692 24.956 20.19 25.4894 19.8525C26.0229 19.515 26.4495 19.0329 26.7197 18.4624L15.7697 11.7507L13.7064 13.0124L11.6414 11.7507V11.7524ZM17.368 10.7757L27.0397 16.704V4.86402L17.368 10.774V10.7757Z" fill="#164789"/>
</svg>
