<svg width="28" height="26" viewBox="0 0 28 26" fill="none" xmlns="http://www.w3.org/2000/svg">
<g clip-path="url(#clip0_2253_19758)">
<path d="M2.51639 12.869C2.51611 11.073 2.98862 9.30855 3.88643 7.75307C4.78425 6.19759 6.07572 4.90586 7.63102 4.00775C9.18632 3.10963 10.9506 2.63677 12.7466 2.6367C14.5426 2.63663 16.307 3.10935 17.8624 4.00735C18.0759 4.12874 18.3287 4.16075 18.5657 4.0964C18.8028 4.03205 19.0047 3.87656 19.1275 3.66387C19.2503 3.45118 19.284 3.19855 19.2212 2.96111C19.1584 2.72367 19.0043 2.52069 18.7924 2.39648C16.4875 1.06572 13.8078 0.532685 11.1691 0.880041C8.53031 1.2274 6.07989 2.43574 4.19785 4.31766C2.3158 6.19958 1.10731 8.64992 0.759781 11.2887C0.412255 13.9274 0.94512 16.6071 2.27574 18.9121C3.60635 21.2171 5.66036 23.0187 8.11921 24.0374C10.5781 25.0562 13.3043 25.2351 15.8752 24.5465C18.4461 23.8579 20.718 22.3402 22.3385 20.2289C23.9589 18.1175 24.8375 15.5305 24.8378 12.869C24.8378 12.6223 24.7398 12.3857 24.5654 12.2113C24.391 12.0369 24.1544 11.9389 23.9078 11.9389C23.6611 11.9389 23.4245 12.0369 23.2501 12.2113C23.0757 12.3857 22.9777 12.6223 22.9777 12.869C22.9777 15.5823 21.8998 18.1845 19.9812 20.1031C18.0626 22.0217 15.4604 23.0996 12.747 23.0996C10.0337 23.0996 7.4315 22.0217 5.51288 20.1031C3.59426 18.1845 2.51639 15.5823 2.51639 12.869Z" fill="#164789"/>
<path d="M26.4253 4.22692C26.5118 4.14045 26.5804 4.03779 26.6271 3.92481C26.6739 3.81183 26.698 3.69073 26.698 3.56844C26.698 3.44615 26.6739 3.32506 26.6271 3.21207C26.5804 3.09909 26.5118 2.99643 26.4253 2.90996C26.3388 2.82349 26.2361 2.75489 26.1232 2.70809C26.0102 2.66129 25.8891 2.63721 25.7668 2.63721C25.6445 2.63721 25.5234 2.66129 25.4104 2.70809C25.2974 2.75489 25.1948 2.82349 25.1083 2.90996L12.746 15.2742L7.82409 10.3504C7.73762 10.264 7.63496 10.1954 7.52198 10.1486C7.409 10.1018 7.2879 10.0777 7.16561 10.0777C7.04332 10.0777 6.92222 10.1018 6.80924 10.1486C6.69626 10.1954 6.5936 10.264 6.50713 10.3504C6.42065 10.4369 6.35206 10.5396 6.30526 10.6525C6.25846 10.7655 6.23437 10.8866 6.23438 11.0089C6.23438 11.1312 6.25846 11.2523 6.30526 11.3653C6.35206 11.4783 6.42065 11.5809 6.50713 11.6674L12.0875 17.2478C12.1739 17.3344 12.2765 17.4031 12.3895 17.45C12.5025 17.4969 12.6236 17.521 12.746 17.521C12.8683 17.521 12.9894 17.4969 13.1024 17.45C13.2154 17.4031 13.3181 17.3344 13.4044 17.2478L26.4253 4.22692Z" fill="#164789"/>
</g>
<defs>
<clipPath id="clip0_2253_19758">
<rect width="27.381" height="25" fill="white" transform="translate(0.246094 0.369019)"/>
</clipPath>
</defs>
</svg>
