<svg width="26" height="26" viewBox="0 0 26 26" fill="none" xmlns="http://www.w3.org/2000/svg">
<path d="M2.58984 0.369019C1.96824 0.369019 1.3721 0.615949 0.932562 1.05549C0.493024 1.49503 0.246094 2.09117 0.246094 2.71277L0.246094 13.6503C0.246094 14.2719 0.493024 14.868 0.932562 15.3076C1.3721 15.7471 1.96824 15.994 2.58984 15.994H9.62109V17.5565H1.80859C1.39419 17.5565 0.996765 17.7211 0.703739 18.0142C0.410714 18.3072 0.246094 18.7046 0.246094 19.119L0.246094 23.8065C0.246094 24.2209 0.410714 24.6183 0.703739 24.9114C0.996765 25.2044 1.39419 25.369 1.80859 25.369H23.6836C24.098 25.369 24.4954 25.2044 24.7884 24.9114C25.0815 24.6183 25.2461 24.2209 25.2461 23.8065V19.119C25.2461 18.7046 25.0815 18.3072 24.7884 18.0142C24.4954 17.7211 24.098 17.5565 23.6836 17.5565H15.8711V15.994H22.9023C23.5239 15.994 24.1201 15.7471 24.5596 15.3076C24.9992 14.868 25.2461 14.2719 25.2461 13.6503V2.71277C25.2461 2.09117 24.9992 1.49503 24.5596 1.05549C24.1201 0.615949 23.5239 0.369019 22.9023 0.369019L2.58984 0.369019ZM2.58984 1.93152H22.9023C23.1095 1.93152 23.3083 2.01383 23.4548 2.16034C23.6013 2.30685 23.6836 2.50557 23.6836 2.71277V13.6503C23.6836 13.8575 23.6013 14.0562 23.4548 14.2027C23.3083 14.3492 23.1095 14.4315 22.9023 14.4315H2.58984C2.38264 14.4315 2.18393 14.3492 2.03742 14.2027C1.8909 14.0562 1.80859 13.8575 1.80859 13.6503V2.71277C1.80859 2.50557 1.8909 2.30685 2.03742 2.16034C2.18393 2.01383 2.38264 1.93152 2.58984 1.93152ZM18.9961 19.9003C18.9961 19.6931 19.0784 19.4944 19.2249 19.3478C19.3714 19.2013 19.5701 19.119 19.7773 19.119C19.9845 19.119 20.1833 19.2013 20.3298 19.3478C20.4763 19.4944 20.5586 19.6931 20.5586 19.9003C20.5586 20.1075 20.4763 20.3062 20.3298 20.4527C20.1833 20.5992 19.9845 20.6815 19.7773 20.6815C19.5701 20.6815 19.3714 20.5992 19.2249 20.4527C19.0784 20.3062 18.9961 20.1075 18.9961 19.9003ZM22.1211 19.9003C22.1211 19.6931 22.2034 19.4944 22.3499 19.3478C22.4964 19.2013 22.6951 19.119 22.9023 19.119C23.1095 19.119 23.3083 19.2013 23.4548 19.3478C23.6013 19.4944 23.6836 19.6931 23.6836 19.9003C23.6836 20.1075 23.6013 20.3062 23.4548 20.4527C23.3083 20.5992 23.1095 20.6815 22.9023 20.6815C22.6951 20.6815 22.4964 20.5992 22.3499 20.4527C22.2034 20.3062 22.1211 20.1075 22.1211 19.9003ZM2.58984 19.119H10.4023C10.6095 19.119 10.8083 19.2013 10.9548 19.3478C11.1013 19.4944 11.1836 19.6931 11.1836 19.9003C11.1836 20.1075 11.1013 20.3062 10.9548 20.4527C10.8083 20.5992 10.6095 20.6815 10.4023 20.6815H2.58984C2.38264 20.6815 2.18393 20.5992 2.03742 20.4527C1.8909 20.3062 1.80859 20.1075 1.80859 19.9003C1.80859 19.6931 1.8909 19.4944 2.03742 19.3478C2.18393 19.2013 2.38264 19.119 2.58984 19.119ZM1.80859 22.6346C1.80859 22.531 1.84975 22.4317 1.92301 22.3584C1.99626 22.2852 2.09562 22.244 2.19922 22.244H10.793C10.8966 22.244 10.9959 22.2852 11.0692 22.3584C11.1424 22.4317 11.1836 22.531 11.1836 22.6346C11.1836 22.7382 11.1424 22.8376 11.0692 22.9109C10.9959 22.9841 10.8966 23.0253 10.793 23.0253H2.19922C2.09562 23.0253 1.99626 22.9841 1.92301 22.9109C1.84975 22.8376 1.80859 22.7382 1.80859 22.6346Z" fill="#164789"/>
</svg>
