<svg width="23" height="26" viewBox="0 0 23 26" fill="none" xmlns="http://www.w3.org/2000/svg">
<path d="M8.96607 0.369019C8.75887 0.369019 8.56015 0.451329 8.41364 0.597841C8.26713 0.744354 8.18482 0.943068 8.18482 1.15027C8.18482 1.35747 8.26713 1.55618 8.41364 1.7027C8.56015 1.84921 8.75887 1.93152 8.96607 1.93152H9.74732V3.60339C7.01053 3.99895 4.52509 5.41632 2.79107 7.57032C1.05706 9.72431 0.203144 12.4551 0.401144 15.2132C0.599143 17.9714 1.83436 20.5522 3.85827 22.4364C5.88218 24.3206 8.54459 25.3684 11.3098 25.369C13.4065 25.3689 15.4591 24.7662 17.2229 23.6326C18.9868 22.4989 20.3876 20.8822 21.2586 18.975C22.1296 17.0677 22.434 14.9503 22.1356 12.8749C21.8372 10.7995 20.9485 8.85363 19.5754 7.26902C19.5823 7.26288 19.5891 7.25663 19.5958 7.25027L20.1489 6.69714L20.7004 7.25027C20.7725 7.32489 20.8587 7.3844 20.954 7.42535C21.0494 7.46629 21.1519 7.48784 21.2556 7.48875C21.3593 7.48965 21.4622 7.46988 21.5582 7.4306C21.6542 7.39132 21.7415 7.33331 21.8148 7.25995C21.8882 7.1866 21.9462 7.09937 21.9855 7.00336C22.0247 6.90734 22.0445 6.80447 22.0436 6.70074C22.0427 6.597 22.0212 6.49449 21.9802 6.39917C21.9393 6.30386 21.8797 6.21765 21.8051 6.14558L19.5958 3.93464C19.5237 3.86003 19.4375 3.80051 19.3422 3.75956C19.2469 3.71862 19.1443 3.69707 19.0406 3.69617C18.9369 3.69527 18.834 3.71503 18.738 3.75431C18.642 3.7936 18.5547 3.85161 18.4814 3.92496C18.408 3.99831 18.35 4.08554 18.3107 4.18155C18.2715 4.27757 18.2517 4.38044 18.2526 4.48418C18.2535 4.58791 18.275 4.69042 18.316 4.78574C18.3569 4.88106 18.4165 4.96726 18.4911 5.03933L19.0442 5.59246L18.4911 6.14558C18.4847 6.15176 18.4785 6.15801 18.4723 6.16433C16.8905 4.79054 14.9462 3.90192 12.8723 3.60496V1.93152H13.6536C13.8608 1.93152 14.0595 1.84921 14.206 1.7027C14.3525 1.55618 14.4348 1.35747 14.4348 1.15027C14.4348 0.943068 14.3525 0.744354 14.206 0.597841C14.0595 0.451329 13.8608 0.369019 13.6536 0.369019H8.96607ZM12.0911 9.11902V14.4315C12.0911 14.6387 12.0088 14.8374 11.8622 14.9839C11.7157 15.1305 11.517 15.2128 11.3098 15.2128H5.84107C5.63387 15.2128 5.43515 15.1305 5.28864 14.9839C5.14213 14.8374 5.05982 14.6387 5.05982 14.4315C5.05982 14.2243 5.14213 14.0256 5.28864 13.8791C5.43515 13.7326 5.63387 13.6503 5.84107 13.6503H10.5286V9.11902C10.5286 8.91182 10.6109 8.7131 10.7574 8.56659C10.9039 8.42008 11.1026 8.33777 11.3098 8.33777C11.517 8.33777 11.7157 8.42008 11.8622 8.56659C12.0088 8.7131 12.0911 8.91182 12.0911 9.11902Z" fill="#164789"/>
</svg>
