<svg width="11" height="19" viewBox="0 0 11 19" fill="none" xmlns="http://www.w3.org/2000/svg">
<path d="M0.5 12.869H2.5C2.5 13.949 3.87 14.869 5.5 14.869C7.13 14.869 8.5 13.949 8.5 12.869C8.5 11.769 7.46 11.369 5.26 10.839C3.14 10.309 0.5 9.64902 0.5 6.86902C0.5 5.07902 1.97 3.55902 4 3.04902V0.869019H7V3.04902C9.03 3.55902 10.5 5.07902 10.5 6.86902H8.5C8.5 5.78902 7.13 4.86902 5.5 4.86902C3.87 4.86902 2.5 5.78902 2.5 6.86902C2.5 7.96902 3.54 8.36902 5.74 8.89902C7.86 9.42902 10.5 10.089 10.5 12.869C10.5 14.659 9.03 16.179 7 16.689V18.869H4V16.689C1.97 16.179 0.5 14.659 0.5 12.869Z" fill="#164789"/>
</svg>
