<svg width="23" height="23" viewBox="0 0 23 23" fill="none" xmlns="http://www.w3.org/2000/svg">
<path d="M17 2.86902H1V0.869019H17V2.86902ZM16.5 11.869H15V16.869L18.61 19.029L19.36 17.809L16.5 16.119V11.869ZM23 15.869C23 19.739 19.87 22.869 16 22.869C12.47 22.869 9.57 20.259 9.08 16.869H1V10.869H0V8.86902L1 3.86902H17L18 8.86902V9.15902C20.89 10.029 23 12.699 23 15.869ZM2.04 8.86902H15.96L15.36 5.86902H2.64L2.04 8.86902ZM3 14.869H9V10.869H3V14.869ZM21 15.869C21 13.109 18.76 10.869 16 10.869C13.24 10.869 11 13.109 11 15.869C11 18.629 13.24 20.869 16 20.869C18.76 20.869 21 18.629 21 15.869Z" fill="#164789"/>
</svg>
