<svg width="72" height="110" viewBox="0 0 72 110" fill="none" xmlns="http://www.w3.org/2000/svg">
<rect x="0.0507812" y="22.9414" width="71.8954" height="71.8954" rx="20" fill="#E7F6FF"/>
<g clip-path="url(#clip0_2556_91418)">
<g filter="url(#filter0_d_2556_91418)">
<path d="M27.2063 97.5898C26.7728 97.5898 26.3394 97.5423 25.9145 97.4431L19.6246 96.0023C16.5339 95.2949 14.5962 92.2149 15.3071 89.1392L26.257 41.1662C19.4903 36.0415 16.2651 27.3278 18.1855 19.0153C20.4829 9.08938 29.2264 2.15723 39.448 2.15723C41.0909 2.15723 42.7468 2.34703 44.3637 2.7137C56.0982 5.40115 63.4459 17.087 60.7452 28.76C58.8249 37.0682 52.0972 43.5 43.7612 45.1694L32.8113 93.138C32.2044 95.7608 29.9026 97.5855 27.2063 97.5855V97.5898ZM41.8755 36.8741C47.0991 35.9164 51.2128 32.0211 52.4049 26.849C53.2025 23.411 52.6043 19.8651 50.7187 16.8757C48.8373 13.8819 45.8983 11.7984 42.4391 11.009C41.455 10.7847 40.445 10.6682 39.448 10.6682C33.2318 10.6682 27.9172 14.887 26.5214 20.9219C25.325 26.0898 27.3104 31.3827 31.5889 34.5188L41.8712 36.8741H41.8755Z" fill="white"/>
</g>
<path d="M39.4478 4.31373C40.9087 4.31373 42.3912 4.47765 43.8781 4.81843C54.4638 7.24274 61.0702 17.7467 58.634 28.2808C56.7353 36.4898 49.9035 42.2702 41.9751 43.2839L30.7044 92.6674C30.3229 94.3196 28.8447 95.4369 27.2148 95.4369C26.9504 95.4369 26.6773 95.4067 26.4085 95.3463L20.1186 93.9055C18.1896 93.4655 16.9845 91.5502 17.431 89.6306L28.7017 40.2471C22.0173 35.8859 18.4107 27.7114 20.3094 19.5067C22.3945 10.4435 30.4877 4.31373 39.4478 4.31373ZM41.8103 39.0737C47.8792 38.142 53.0593 33.6514 54.5202 27.3361C56.4319 19.0624 51.243 10.8102 42.9287 8.90784C41.7627 8.64039 40.5966 8.51098 39.4522 8.51098C32.4167 8.51098 26.0574 13.3251 24.4102 20.4384C22.9493 26.7537 25.6369 33.0474 30.6827 36.5243L41.806 39.0737M39.4478 0C34.1073 0 28.8404 1.81608 24.6226 5.12039C20.3354 8.47216 17.301 13.2388 16.0785 18.5318C14.9558 23.3804 15.372 28.3714 17.275 32.9569C18.7358 36.4769 20.9813 39.5569 23.851 41.9984L13.1959 88.6686C12.7234 90.709 13.0788 92.8227 14.2015 94.6043C15.3243 96.3902 17.0756 97.6325 19.139 98.1027L25.4289 99.5435C26.0141 99.6772 26.6123 99.7463 27.2062 99.7463C30.9168 99.7463 34.0899 97.2314 34.9222 93.6337L45.573 46.9722C49.2186 46.0188 52.5868 44.2286 55.4435 41.7051C59.1715 38.4094 61.7334 34.1 62.8561 29.2514C64.2953 23.0353 63.2116 16.6337 59.8131 11.2243C56.4102 5.8149 51.1 2.04902 44.8491 0.621176C43.0718 0.215686 41.2555 0.00862745 39.4478 0.00862745V0ZM32.5381 32.5212C29.1959 29.8725 27.67 25.589 28.6367 21.4047C29.8071 16.3533 34.2547 12.8247 39.4522 12.8247C40.2888 12.8247 41.1298 12.9196 41.9577 13.1094C44.8491 13.7737 47.3113 15.5165 48.8849 18.0184C50.4584 20.5204 50.9613 23.4882 50.2937 26.3655C49.327 30.5498 46.0759 33.7376 41.9014 34.6651L32.5337 32.5212H32.5381Z" fill="white"/>
<mask id="mask0_2556_91418" style="mask-type:alpha" maskUnits="userSpaceOnUse" x="19" y="4" width="41" height="41">
<path d="M43.8742 4.81859C33.2885 2.39428 22.7331 8.96408 20.3012 19.4982C18.4025 27.7072 22.0091 35.8774 28.6935 40.2386L28.6675 40.3551H30.8653C34.6149 40.6958 38.1002 43.97 41.7371 44.3021L41.9712 43.2798C49.8997 42.266 56.7358 36.4857 58.6301 28.2766C61.0663 17.7425 54.46 7.23859 43.8742 4.81428V4.81859ZM54.5163 27.3362C53.0555 33.6515 47.8753 38.1421 41.8065 39.0739L30.6832 36.5245C25.6331 33.0476 22.9498 26.7539 24.4107 20.4386C26.3223 12.1649 34.6149 7.00134 42.9292 8.908C51.2435 10.8104 56.4324 19.0625 54.5207 27.3362H54.5163Z" fill="#00B6DB"/>
</mask>
<g mask="url(#mask0_2556_91418)">
</g>
<mask id="mask1_2556_91418" style="mask-type:alpha" maskUnits="userSpaceOnUse" x="17" y="40" width="25" height="56">
<path d="M28.6683 40.3588L17.4236 89.6215C16.9815 91.5412 18.1822 93.4564 20.1113 93.8964L26.4012 95.3372C28.3302 95.7772 30.2549 94.5823 30.697 92.6627L41.7336 44.3015C38.0966 43.9694 34.6114 40.6953 30.8617 40.3545H28.664L28.6683 40.3588Z" fill="#2A3082"/>
</mask>
<g mask="url(#mask1_2556_91418)">
</g>
<mask id="mask2_2556_91418" style="mask-type:alpha" maskUnits="userSpaceOnUse" x="17" y="52" width="23" height="44">
<path d="M17.4236 89.6223C16.9815 91.5419 18.1822 93.4572 20.1113 93.8972L26.4012 95.338C28.3302 95.778 30.2549 94.5831 30.697 92.6635L39.4621 54.2627C35.396 52.1058 30.4456 52.658 25.894 52.5156L17.4236 89.6223Z" fill="#1B4688"/>
</mask>
<g mask="url(#mask2_2556_91418)">
</g>
<mask id="mask3_2556_91418" style="mask-type:alpha" maskUnits="userSpaceOnUse" x="17" y="75" width="17" height="21">
<path d="M17.4236 89.622C16.9815 91.5416 18.1822 93.4569 20.1113 93.8969L26.4012 95.3377C28.3302 95.7777 30.2549 94.5828 30.697 92.6632L33.6404 79.7608C29.596 77.5392 25.2958 75.762 20.5968 75.6973L17.4193 89.6177L17.4236 89.622Z" fill="#772162"/>
</mask>
<g mask="url(#mask3_2556_91418)">
</g>
</g>
<defs>
<filter id="filter0_d_2556_91418" x="-44.8398" y="-57.8428" width="176.145" height="225.433" filterUnits="userSpaceOnUse" color-interpolation-filters="sRGB">
<feFlood flood-opacity="0" result="BackgroundImageFix"/>
<feColorMatrix in="SourceAlpha" type="matrix" values="0 0 0 0 0 0 0 0 0 0 0 0 0 0 0 0 0 0 127 0" result="hardAlpha"/>
<feMorphology radius="60" operator="dilate" in="SourceAlpha" result="effect1_dropShadow_2556_91418"/>
<feOffset dx="5" dy="5"/>
<feGaussianBlur stdDeviation="2.5"/>
<feComposite in2="hardAlpha" operator="out"/>
<feColorMatrix type="matrix" values="0 0 0 0 0 0 0 0 0 0 0 0 0 0 0 0 0 0 0.1 0"/>
<feBlend mode="normal" in2="BackgroundImageFix" result="effect1_dropShadow_2556_91418"/>
<feBlend mode="normal" in="SourceGraphic" in2="effect1_dropShadow_2556_91418" result="shape"/>
</filter>
<clipPath id="clip0_2556_91418">
<rect width="58.9542" height="110" fill="white" transform="translate(12.9922)"/>
</clipPath>
</defs>
</svg>
