<svg width="20" height="21" viewBox="0 0 20 21" fill="none" xmlns="http://www.w3.org/2000/svg">
<path d="M2.5 0.473389C1.83696 0.473389 1.20107 0.736781 0.732233 1.20562C0.263392 1.67446 0 2.31035 0 2.97339L0 17.9734C0 18.6364 0.263392 19.2723 0.732233 19.7412C1.20107 20.21 1.83696 20.4734 2.5 20.4734H17.5C18.163 20.4734 18.7989 20.21 19.2678 19.7412C19.7366 19.2723 20 18.6364 20 17.9734V2.97339C20 2.31035 19.7366 1.67446 19.2678 1.20562C18.7989 0.736781 18.163 0.473389 17.5 0.473389L2.5 0.473389ZM10.625 6.09839V9.84839H14.375C14.5408 9.84839 14.6997 9.91424 14.8169 10.0314C14.9342 10.1487 15 10.3076 15 10.4734C15 10.6391 14.9342 10.7981 14.8169 10.9153C14.6997 11.0325 14.5408 11.0984 14.375 11.0984H10.625V14.8484C10.625 15.0141 10.5592 15.1731 10.4419 15.2903C10.3247 15.4075 10.1658 15.4734 10 15.4734C9.83424 15.4734 9.67527 15.4075 9.55806 15.2903C9.44085 15.1731 9.375 15.0141 9.375 14.8484V11.0984H5.625C5.45924 11.0984 5.30027 11.0325 5.18306 10.9153C5.06585 10.7981 5 10.6391 5 10.4734C5 10.3076 5.06585 10.1487 5.18306 10.0314C5.30027 9.91424 5.45924 9.84839 5.625 9.84839H9.375V6.09839C9.375 5.93263 9.44085 5.77366 9.55806 5.65645C9.67527 5.53924 9.83424 5.47339 10 5.47339C10.1658 5.47339 10.3247 5.53924 10.4419 5.65645C10.5592 5.77366 10.625 5.93263 10.625 6.09839Z" fill="#164789"/>
</svg>
