<svg width="21" height="20" viewBox="0 0 21 20" fill="none" xmlns="http://www.w3.org/2000/svg">
<path d="M12.7222 10.8889C12.1667 10.3444 11.3667 10 10.5 10C8.65556 10 7.16667 11.4889 7.16667 13.3333C7.16667 14.7889 8.1 16.0111 9.38889 16.4667C9.46667 14.0778 10.8 12 12.7222 10.8889ZM9.48889 17.7778H2.72222V2.22222H15.1333L18.2778 5.36667V10.3889C19.1111 10.6778 19.8556 11.1111 20.5 11.7111V4.44444L16.0556 0H2.72222C1.48889 0 0.5 1 0.5 2.22222V17.7778C0.5 19 1.48889 20 2.72222 20H10.2889C9.9 19.3222 9.62222 18.5778 9.48889 17.7778ZM3.83333 7.77778H13.8333V3.33333H3.83333V7.77778ZM14.6667 20L11.6111 16.6667L12.9 15.3778L14.6667 17.1444L18.6556 13.1556L19.9444 14.7222L14.6667 20Z" fill="#164789"/>
</svg>
