<svg width="25" height="26" viewBox="0 0 25 26" fill="none" xmlns="http://www.w3.org/2000/svg">
<path d="M18.3476 16.6613C19.8605 14.5965 20.5381 12.0366 20.2449 9.49358C19.9516 6.9506 18.7092 4.61212 16.766 2.946C14.8229 1.27987 12.3224 0.408976 9.76484 0.507538C7.20726 0.6061 4.7812 1.66685 2.97202 3.47758C1.16285 5.28831 0.103978 7.71547 0.00725994 10.2735C-0.089458 12.8315 0.783107 15.3317 2.45039 17.2739C4.11766 19.2161 6.4567 20.4571 8.99953 20.7485C11.5424 21.04 14.1015 20.3605 16.1649 18.8459H16.1633C16.2102 18.9084 16.2602 18.9678 16.3164 19.0256L22.3318 25.0418C22.6248 25.335 23.0222 25.4999 23.4367 25.5C23.8512 25.5001 24.2487 25.3356 24.5419 25.0426C24.8351 24.7496 24.9999 24.3521 25 23.9376C25.0001 23.523 24.8356 23.1254 24.5427 22.8322L18.5273 16.816C18.4714 16.7594 18.4113 16.7072 18.3476 16.6597V16.6613ZM18.7507 10.6544C18.7507 11.7831 18.5284 12.9007 18.0966 13.9434C17.6647 14.9862 17.0317 15.9336 16.2337 16.7317C15.4358 17.5298 14.4884 18.1629 13.4458 18.5948C12.4032 19.0267 11.2858 19.249 10.1573 19.249C9.02877 19.249 7.91131 19.0267 6.86871 18.5948C5.82611 18.1629 4.87877 17.5298 4.0808 16.7317C3.28283 15.9336 2.64984 14.9862 2.21798 13.9434C1.78612 12.9007 1.56384 11.7831 1.56384 10.6544C1.56384 8.37496 2.46922 6.18888 4.0808 4.57708C5.69238 2.96527 7.87815 2.05977 10.1573 2.05977C12.4364 2.05977 14.6222 2.96527 16.2337 4.57708C17.8453 6.18888 18.7507 8.37496 18.7507 10.6544Z" fill="#164789"/>
</svg>
