<svg width="8" height="10" viewBox="0 0 8 10" fill="none" xmlns="http://www.w3.org/2000/svg">
<path fill-rule="evenodd" clip-rule="evenodd" d="M0.622393 5.95486C0.661092 5.91606 0.707065 5.88528 0.757678 5.86428C0.808292 5.84328 0.862551 5.83246 0.917349 5.83246C0.972147 5.83246 1.02641 5.84328 1.07702 5.86428C1.12763 5.88528 1.17361 5.91606 1.21231 5.95486L4.25019 8.99357L7.28807 5.95486C7.36629 5.87663 7.47239 5.83268 7.58302 5.83268C7.69365 5.83268 7.79975 5.87663 7.87798 5.95486C7.95621 6.03308 8.00015 6.13918 8.00015 6.24981C8.00015 6.36044 7.95621 6.46654 7.87798 6.54477L4.54514 9.87761C4.50644 9.9164 4.46047 9.94718 4.40986 9.96819C4.35924 9.98919 4.30498 10 4.25019 10C4.19539 10 4.14113 9.98919 4.09052 9.96819C4.0399 9.94718 3.99393 9.9164 3.95523 9.87761L0.622393 6.54477C0.583596 6.50607 0.552815 6.4601 0.531813 6.40948C0.510811 6.35887 0.5 6.30461 0.5 6.24981C0.5 6.19502 0.510811 6.14076 0.531813 6.09014C0.552815 6.03953 0.583596 5.99356 0.622393 5.95486ZM0.622393 4.04514C0.661092 4.08394 0.707065 4.11472 0.757678 4.13572C0.808292 4.15673 0.862551 4.16754 0.917349 4.16754C0.972147 4.16754 1.02641 4.15673 1.07702 4.13572C1.12763 4.11472 1.17361 4.08394 1.21231 4.04514L4.25019 1.00643L7.28807 4.04514C7.36629 4.12337 7.47239 4.16732 7.58302 4.16732C7.69365 4.16732 7.79975 4.12337 7.87798 4.04514C7.95621 3.96691 8.00015 3.86082 8.00015 3.75019C8.00015 3.63956 7.95621 3.53346 7.87798 3.45523L4.54514 0.122393C4.50644 0.0835963 4.46047 0.0528153 4.40986 0.031813C4.35924 0.0108108 4.30498 0 4.25019 0C4.19539 0 4.14113 0.0108108 4.09052 0.031813C4.0399 0.0528153 3.99393 0.0835963 3.95523 0.122393L0.622393 3.45523C0.583596 3.49393 0.552815 3.5399 0.531813 3.59052C0.510811 3.64113 0.5 3.69539 0.5 3.75019C0.5 3.80498 0.510811 3.85924 0.531813 3.90986C0.552815 3.96047 0.583596 4.00644 0.622393 4.04514Z" fill="black"/>
</svg>
