<svg width="39" height="39" viewBox="0 0 39 39" fill="none" xmlns="http://www.w3.org/2000/svg">
<path d="M2 14.0808C1.44772 14.0808 1 14.5285 1 15.0808V23.9192C1 24.4715 1.44772 24.9192 2 24.9192H19.4721L13.4457 30.9457C13.2581 31.1332 13.1528 31.3876 13.1528 31.6528C13.1528 31.918 13.2581 32.1723 13.4457 32.3599L18.7929 37.7071C19.1834 38.0976 19.8166 38.0976 20.2071 37.7071L37.7071 20.2071C38.0976 19.8166 38.0976 19.1834 37.7071 18.7929L20.2071 1.29289C19.8166 0.902369 19.1834 0.902369 18.7929 1.29289L13.4457 6.64012C13.2581 6.82765 13.1528 7.08201 13.1528 7.34722C13.1528 7.61244 13.2581 7.86679 13.4457 8.05433L19.4721 14.0808H2Z" fill="#164789" stroke="#F3F3F3" stroke-width="2" stroke-linejoin="round"/>
</svg>
