<svg width="43" height="40" viewBox="0 0 43 40" fill="none" xmlns="http://www.w3.org/2000/svg">
<path d="M16.3815 39.6884C20.1293 38.2146 19.3082 34.151 17.4132 31.5823C15.5393 28.9505 12.9496 27.1397 10.3388 25.3922C8.48595 24.2131 6.78051 22.7393 5.41194 21.0549C4.8224 20.3601 3.62227 19.0757 4.84346 18.8231C6.08569 18.5704 8.23329 19.7916 9.32815 20.2548C11.2441 21.0549 13.1391 21.9813 14.9077 23.0761L17.0342 19.4968C13.7497 17.3282 9.53869 15.4122 5.62249 14.8437C3.39067 14.5068 1.03252 14.97 0.274547 17.3913C-0.399209 19.4758 0.67459 21.5813 1.89577 23.2235C4.78029 27.0766 9.26498 28.9294 12.6127 32.2561C13.3286 32.9509 14.1918 33.772 14.6129 34.7406C15.0551 35.667 14.9498 35.7301 13.9602 35.7301C11.3494 35.7301 8.08591 33.6878 5.95937 32.3403L3.83282 35.9196C7.05422 37.8988 12.4443 40.9939 16.3815 39.6884ZM35.7731 11.2223L23.835 23.1604H19.0134V18.3388L30.9515 6.37963L35.7731 11.2223ZM42.9317 9.57997C42.9107 10.2116 42.258 10.8643 41.5842 11.517L36.2784 16.8439L34.4466 15.0121L39.9209 9.55892L38.6786 8.31668L37.268 9.72736L32.4464 4.90579L36.9732 0.378988C37.4785 -0.126329 38.2997 -0.126329 38.7839 0.378988L41.7948 3.38984C42.3001 3.85304 42.3001 4.69524 41.7948 5.20055C41.3526 5.64271 40.9315 6.06381 40.9315 6.4849C40.8894 6.906 41.3105 7.36921 41.7316 7.72714C42.3422 8.35879 42.9528 8.94832 42.9317 9.57997Z" fill="#164789"/>
</svg>
