<svg width="40" height="40" viewBox="0 0 40 40" fill="none" xmlns="http://www.w3.org/2000/svg">
<path d="M36 0H4C2.93913 0 1.92172 0.421427 1.17157 1.17157C0.421427 1.92172 0 2.93913 0 4V28C0 29.0609 0.421427 30.0783 1.17157 30.8284C1.92172 31.5786 2.93913 32 4 32H12L20 40L28 32H36C37.0609 32 38.0783 31.5786 38.8284 30.8284C39.5786 30.0783 40 29.0609 40 28V4C40 2.93913 39.5786 1.92172 38.8284 1.17157C38.0783 0.421427 37.0609 0 36 0ZM20 4.6C23 4.6 25.4 7 25.4 10C25.4 13 23 15.4 20 15.4C17 15.4 14.6 13 14.6 10C14.6 7 17 4.6 20 4.6ZM32 26H8V24.2C8 20.2 16 18 20 18C24 18 32 20.2 32 24.2V26Z" fill="#164789"/>
</svg>
