<svg width="41" height="40" viewBox="0 0 41 40" fill="none" xmlns="http://www.w3.org/2000/svg">
<path d="M30.5 10H40.5V30H30.5V34C30.5 34.5304 30.7107 35.0391 31.0858 35.4142C31.4609 35.7893 31.9696 36 32.5 36H36.5V40H31.5C30.4 40 28.5 39.1 28.5 38C28.5 39.1 26.6 40 25.5 40H20.5V36H24.5C25.0304 36 25.5391 35.7893 25.9142 35.4142C26.2893 35.0391 26.5 34.5304 26.5 34V6C26.5 5.46957 26.2893 4.96086 25.9142 4.58579C25.5391 4.21071 25.0304 4 24.5 4H20.5V0H25.5C26.6 0 28.5 0.9 28.5 2C28.5 0.9 30.4 0 31.5 0H36.5V4H32.5C31.9696 4 31.4609 4.21071 31.0858 4.58579C30.7107 4.96086 30.5 5.46957 30.5 6V10ZM0.5 10H22.5V14H4.5V26H22.5V30H0.5V10ZM36.5 26V14H30.5V26H36.5ZM13.5 20C13.5 19.2044 13.1839 18.4413 12.6213 17.8787C12.0587 17.3161 11.2956 17 10.5 17C9.70435 17 8.94129 17.3161 8.37868 17.8787C7.81607 18.4413 7.5 19.2044 7.5 20C7.5 20.7956 7.81607 21.5587 8.37868 22.1213C8.94129 22.6839 9.70435 23 10.5 23C11.2956 23 12.0587 22.6839 12.6213 22.1213C13.1839 21.5587 13.5 20.7956 13.5 20ZM22.5 17.78C21.28 16.66 19.38 16.76 18.26 18C17.14 19.2 17.24 21.1 18.5 22.22C19.6 23.26 21.36 23.26 22.5 22.22V17.78Z" fill="#164789"/>
</svg>
