<svg width="38" height="40" viewBox="0 0 38 40" fill="none" xmlns="http://www.w3.org/2000/svg">
<path d="M19.9539 0H4.71577C2.60149 0 0.90625 1.69524 0.90625 3.80952V34.2857C0.90625 36.4 2.60149 38.0952 4.71577 38.0952H19.592C18.5824 36.3619 18.0491 34.381 18.0491 32.381C18.0491 31.7524 18.1063 31.1048 18.2015 30.4762H4.71577V26.6667H19.592C20.4682 25.1429 21.6872 23.8095 23.1539 22.8571H4.71577V19.0476H27.5729V21.1048C28.2015 21.0095 28.8491 20.9524 29.4777 20.9524C30.1063 20.9524 30.7539 21.0095 31.3824 21.1048V11.4286L19.9539 0ZM18.0491 13.3333V2.85714L28.5253 13.3333H18.0491ZM27.5729 24.7619V30.4762H21.8586V34.2857H27.5729V40H31.3824V34.2857H37.0967V30.4762H31.3824V24.7619H27.5729Z" fill="#164789"/>
</svg>
