
<!-- <svg xmlns="http://www.w3.org/2000/svg" height="200" viewBox="0 96 960 960" width="200"><path d="M378 810 154 586l43-43 181 181 384-384 43 43-427 427Z"/></svg> -->
<svg id="changeColor" fill="#DC7633" xmlns="http://www.w3.org/2000/svg" xmlns:xlink="http://www.w3.org/1999/xlink" width="300" viewBox="0 0 375 374.9999" height="300" version="1.0"><defs></defs><g></g><g id="inner-icon" class="svgg" transform="translate(90,70) "> <svg viewBox="0 0 1024 1024" xmlns="http://www.w3.org/2000/svg" id="IconChangeColor" height="300" width="300"><path fill="#000000" d="M512 64a448 448 0 1 1 0 896 448 448 0 0 1 0-896zm-55.808 536.384-99.52-99.584a38.4 38.4 0 1 0-54.336 54.336l126.72 126.72a38.272 38.272 0 0 0 54.336 0l262.4-262.464a38.4 38.4 0 1 0-54.272-54.336L456.192 600.384z" id="mainIconPathAttribute" filter="url(#shadow)" stroke-width="0" stroke="#ff0000"></path><filter id="shadow"><feDropShadow id="shadowValue" stdDeviation="0.3" dx="0" dy="0" flood-color="black"></feDropShadow></filter></svg> </g></svg>