<svg width="21" height="21" viewBox="0 0 21 21" fill="none" xmlns="http://www.w3.org/2000/svg">
<path d="M11.6619 19.3952C11.1286 19.4905 10.5857 19.5476 10.0238 19.5476C4.78571 19.5476 0.5 15.2619 0.5 10.0238C0.5 4.78571 4.78571 0.5 10.0238 0.5C15.2619 0.5 19.5476 4.78571 19.5476 10.0238C19.5476 10.5857 19.4905 11.1286 19.3952 11.6619C18.5952 11.2238 17.6714 10.9762 16.6905 10.9762C15.4905 10.9762 14.3762 11.3476 13.4524 11.9857L10.5 10.2143V5.2619H9.07143V10.9762L12.3381 12.9857C11.4905 13.9857 10.9762 15.2619 10.9762 16.6905C10.9762 17.6714 11.2238 18.5952 11.6619 19.3952ZM15.7381 12.881V15.7381H12.881V17.6429H15.7381V20.5H17.6429V17.6429H20.5V15.7381H17.6429V12.881H15.7381Z" fill="white"/>
</svg>
