<svg width="35" height="21" viewBox="0 0 35 21" fill="none" xmlns="http://www.w3.org/2000/svg">
<path d="M27.4983 17.6429V20.5H10.3555V17.6429C10.3555 17.6429 10.3555 11.9286 18.9269 11.9286C27.4983 11.9286 27.4983 17.6429 27.4983 17.6429ZM23.2126 4.78572C23.2126 3.93808 22.9613 3.10948 22.4903 2.4047C22.0194 1.69992 21.3501 1.15061 20.567 0.826232C19.7839 0.501857 18.9221 0.416985 18.0908 0.582351C17.2594 0.747716 16.4958 1.15589 15.8964 1.75526C15.2971 2.35463 14.8889 3.11827 14.7235 3.94961C14.5582 4.78096 14.643 5.64268 14.9674 6.42579C15.2918 7.2089 15.8411 7.87824 16.5459 8.34916C17.2507 8.82008 18.0793 9.07143 18.9269 9.07143C20.0635 9.07143 21.1536 8.6199 21.9573 7.81617C22.7611 7.01245 23.2126 5.92236 23.2126 4.78572ZM27.784 12.0143C28.5649 12.7347 29.1945 13.6035 29.636 14.5699C30.0775 15.5363 30.3221 16.5809 30.3555 17.6429V20.5H34.6412V17.6429C34.6412 17.6429 34.6412 12.7143 27.784 12.0143ZM26.0697 0.500002C25.6381 0.50026 25.2092 0.567735 24.7983 0.700001C25.6341 1.89853 26.0822 3.32455 26.0822 4.78572C26.0822 6.24688 25.6341 7.6729 24.7983 8.87143C25.2092 9.0037 25.6381 9.07117 26.0697 9.07143C27.2064 9.07143 28.2965 8.6199 29.1002 7.81617C29.9039 7.01245 30.3555 5.92236 30.3555 4.78572C30.3555 3.64907 29.9039 2.55899 29.1002 1.75526C28.2965 0.951531 27.2064 0.500002 26.0697 0.500002ZM11.784 7.64286H7.49832V3.35714H4.64118V7.64286H0.355469V10.5H4.64118V14.7857H7.49832V10.5H11.784V7.64286Z" fill="#164789"/>
</svg>
