<svg width="26" height="28" viewBox="0 0 26 28" fill="none" xmlns="http://www.w3.org/2000/svg">
<mask id="path-1-outside-1_3511_23488" maskUnits="userSpaceOnUse" x="0" y="-0.25" width="26" height="29" fill="black">
<rect fill="white" y="-0.25" width="26" height="29"/>
<path fill-rule="evenodd" clip-rule="evenodd" d="M12.8438 2.75C11.8734 2.75 10.252 3.12266 8.72626 3.5375C7.16532 3.95938 5.59173 4.45859 4.66641 4.76094C4.27954 4.8887 3.93656 5.123 3.67686 5.43692C3.41716 5.75085 3.25129 6.13167 3.19829 6.53562C2.36016 12.8314 4.30501 17.4973 6.66469 20.5841C7.66536 21.9045 8.85848 23.0673 10.2042 24.0336C10.747 24.4175 11.2505 24.7114 11.678 24.9125C12.0717 25.0981 12.495 25.25 12.8438 25.25C13.1925 25.25 13.6144 25.0981 14.0095 24.9125C14.5249 24.662 15.0179 24.368 15.4833 24.0336C16.8291 23.0673 18.0222 21.9045 19.0228 20.5841C21.3825 17.4973 23.3274 12.8314 22.4892 6.53562C22.4363 6.13147 22.2705 5.75043 22.0108 5.43626C21.7511 5.1221 21.4081 4.88754 21.0211 4.75953C19.6779 4.31911 18.3242 3.91118 16.9613 3.53609C15.4355 3.12406 13.8141 2.75 12.8438 2.75ZM15.8616 9.98656C15.9936 9.85453 16.1727 9.78036 16.3594 9.78036C16.5461 9.78036 16.7252 9.85453 16.8572 9.98656C16.9892 10.1186 17.0634 10.2977 17.0634 10.4844C17.0634 10.6711 16.9892 10.8502 16.8572 10.9822L12.6384 15.2009C12.5731 15.2664 12.4955 15.3184 12.4101 15.3538C12.3247 15.3893 12.2331 15.4075 12.1406 15.4075C12.0481 15.4075 11.9566 15.3893 11.8711 15.3538C11.7857 15.3184 11.7081 15.2664 11.6428 15.2009L9.53344 13.0916C9.46807 13.0262 9.41621 12.9486 9.38083 12.8632C9.34545 12.7778 9.32724 12.6862 9.32724 12.5938C9.32724 12.5013 9.34545 12.4097 9.38083 12.3243C9.41621 12.2389 9.46807 12.1613 9.53344 12.0959C9.59882 12.0306 9.67643 11.9787 9.76184 11.9433C9.84726 11.9079 9.9388 11.8897 10.0313 11.8897C10.1237 11.8897 10.2153 11.9079 10.3007 11.9433C10.3861 11.9787 10.4637 12.0306 10.5291 12.0959L12.1406 13.7089L15.8616 9.98656Z"/>
</mask>
<path fill-rule="evenodd" clip-rule="evenodd" d="M12.8438 2.75C11.8734 2.75 10.252 3.12266 8.72626 3.5375C7.16532 3.95938 5.59173 4.45859 4.66641 4.76094C4.27954 4.8887 3.93656 5.123 3.67686 5.43692C3.41716 5.75085 3.25129 6.13167 3.19829 6.53562C2.36016 12.8314 4.30501 17.4973 6.66469 20.5841C7.66536 21.9045 8.85848 23.0673 10.2042 24.0336C10.747 24.4175 11.2505 24.7114 11.678 24.9125C12.0717 25.0981 12.495 25.25 12.8438 25.25C13.1925 25.25 13.6144 25.0981 14.0095 24.9125C14.5249 24.662 15.0179 24.368 15.4833 24.0336C16.8291 23.0673 18.0222 21.9045 19.0228 20.5841C21.3825 17.4973 23.3274 12.8314 22.4892 6.53562C22.4363 6.13147 22.2705 5.75043 22.0108 5.43626C21.7511 5.1221 21.4081 4.88754 21.0211 4.75953C19.6779 4.31911 18.3242 3.91118 16.9613 3.53609C15.4355 3.12406 13.8141 2.75 12.8438 2.75ZM15.8616 9.98656C15.9936 9.85453 16.1727 9.78036 16.3594 9.78036C16.5461 9.78036 16.7252 9.85453 16.8572 9.98656C16.9892 10.1186 17.0634 10.2977 17.0634 10.4844C17.0634 10.6711 16.9892 10.8502 16.8572 10.9822L12.6384 15.2009C12.5731 15.2664 12.4955 15.3184 12.4101 15.3538C12.3247 15.3893 12.2331 15.4075 12.1406 15.4075C12.0481 15.4075 11.9566 15.3893 11.8711 15.3538C11.7857 15.3184 11.7081 15.2664 11.6428 15.2009L9.53344 13.0916C9.46807 13.0262 9.41621 12.9486 9.38083 12.8632C9.34545 12.7778 9.32724 12.6862 9.32724 12.5938C9.32724 12.5013 9.34545 12.4097 9.38083 12.3243C9.41621 12.2389 9.46807 12.1613 9.53344 12.0959C9.59882 12.0306 9.67643 11.9787 9.76184 11.9433C9.84726 11.9079 9.9388 11.8897 10.0313 11.8897C10.1237 11.8897 10.2153 11.9079 10.3007 11.9433C10.3861 11.9787 10.4637 12.0306 10.5291 12.0959L12.1406 13.7089L15.8616 9.98656Z" fill="#369108"/>
<path d="M8.72626 3.5375L9.43071 6.14398L9.43464 6.14292L8.72626 3.5375ZM4.66641 4.76094L3.82782 2.19445L3.81974 2.19712L4.66641 4.76094ZM3.19829 6.53562L5.87468 6.89192L5.87535 6.88684L3.19829 6.53562ZM6.66469 20.5841L8.81659 18.9533L8.80971 18.9443L6.66469 20.5841ZM10.2042 24.0336L8.6294 26.2267L8.63726 26.2324L8.64516 26.238L10.2042 24.0336ZM11.678 24.9125L12.8293 22.4703L12.8272 22.4693L11.678 24.9125ZM14.0095 24.9125L15.1575 27.3563L15.1737 27.3487L15.1898 27.3409L14.0095 24.9125ZM15.4833 24.0336L13.9085 21.8404L13.9077 21.841L15.4833 24.0336ZM19.0228 20.5841L16.8778 18.9443L16.8709 18.9533L19.0228 20.5841ZM22.4892 6.53562L19.8121 6.8861L19.8128 6.89192L22.4892 6.53562ZM21.0211 4.75953L21.8691 2.19613L21.8623 2.19392L21.0211 4.75953ZM16.9613 3.53609L17.6777 0.932847L17.6652 0.929466L16.9613 3.53609ZM16.3594 9.78036V12.4804V9.78036ZM16.8572 10.9822L18.7664 12.8914H18.7664L16.8572 10.9822ZM12.6384 15.2009L10.7293 13.2917L10.7268 13.2942L12.6384 15.2009ZM11.6428 15.2009L13.5544 13.2942L13.552 13.2917L11.6428 15.2009ZM9.32724 12.5938H6.62724H9.32724ZM10.5291 12.0959L12.4391 10.1876L12.4383 10.1867L10.5291 12.0959ZM12.1406 13.7089L10.2306 15.6173L12.1402 17.5285L14.0502 15.6177L12.1406 13.7089ZM15.8616 9.98656L13.9524 8.07737L13.952 8.07773L15.8616 9.98656ZM12.8438 0.0500002C11.4525 0.0500002 9.48242 0.533889 8.01787 0.932085L9.43464 6.14292C11.0217 5.71142 12.2944 5.45 12.8438 5.45V0.0500002ZM8.0218 0.931019C6.39509 1.37067 4.77085 1.88634 3.82783 2.19447L5.505 7.32741C6.4126 7.03085 7.93555 6.54808 9.43071 6.14398L8.0218 0.931019ZM3.81974 2.19712C2.95054 2.48417 2.17994 3.01058 1.59646 3.7159L5.75726 7.15795C5.69318 7.23541 5.60855 7.29323 5.51308 7.32475L3.81974 2.19712ZM1.59646 3.7159C1.01298 4.42121 0.640303 5.27681 0.52123 6.18441L5.87535 6.88684C5.86227 6.98652 5.82134 7.08049 5.75726 7.15795L1.59646 3.7159ZM0.521901 6.17933C-0.421344 13.2647 1.77699 18.6361 4.51968 22.2239L8.80971 18.9443C6.83303 16.3586 5.14167 12.3981 5.87468 6.89192L0.521901 6.17933ZM4.51282 22.2148C5.67662 23.7505 7.06426 25.1029 8.6294 26.2267L11.7791 21.8404C10.6527 21.0317 9.65409 20.0584 8.81657 18.9533L4.51282 22.2148ZM8.64516 26.238C9.29342 26.6965 9.93363 27.0758 10.5287 27.3557L12.8272 22.4693C12.5673 22.347 12.2007 22.1385 11.7633 21.8292L8.64516 26.238ZM10.5266 27.3547C10.973 27.5651 11.8584 27.95 12.8438 27.95V22.55C12.8976 22.55 12.9419 22.5529 12.9751 22.5562C13.0083 22.5595 13.0335 22.5634 13.0498 22.5664C13.0807 22.5719 13.0892 22.5756 13.0724 22.5705C13.0565 22.5656 13.027 22.5555 12.983 22.5379C12.9395 22.5204 12.8882 22.498 12.8293 22.4703L10.5266 27.3547ZM12.8438 27.95C13.8299 27.95 14.7152 27.5641 15.1575 27.3563L12.8616 22.4687C12.8011 22.4971 12.7488 22.5199 12.7045 22.5376C12.6598 22.5556 12.6299 22.5657 12.6139 22.5707C12.5971 22.5758 12.6058 22.5721 12.637 22.5665C12.6534 22.5635 12.6788 22.5595 12.7122 22.5562C12.7456 22.5529 12.7899 22.55 12.8438 22.55V27.95ZM15.1898 27.3409C15.8434 27.0232 16.4687 26.6503 17.0588 26.2262L13.9077 21.841C13.5672 22.0857 13.2064 22.3008 12.8292 22.4841L15.1898 27.3409ZM17.0581 26.2268C18.6233 25.1029 20.0109 23.7505 21.1747 22.2148L16.8709 18.9533C16.0334 20.0585 15.0349 21.0317 13.9085 21.8404L17.0581 26.2268ZM21.1678 22.2239C23.9105 18.6361 26.1089 13.2647 25.1656 6.17933L19.8128 6.89192C20.5458 12.3981 18.8545 16.3586 16.8778 18.9443L21.1678 22.2239ZM25.1664 6.18515C25.0476 5.27744 24.6751 4.42164 24.0919 3.71605L19.9297 7.15648C19.8659 7.07922 19.8251 6.98551 19.8121 6.8861L25.1664 6.18515ZM24.0919 3.71605C23.5086 3.01045 22.7382 2.48365 21.8691 2.19614L20.1731 7.32292C20.078 7.29144 19.9936 7.23375 19.9297 7.15648L24.0919 3.71605ZM21.8623 2.19392C20.4778 1.73996 19.0825 1.31949 17.6777 0.932877L16.2448 6.13931C17.5659 6.50287 18.8779 6.89826 20.1799 7.32514L21.8623 2.19392ZM17.6652 0.929466C16.207 0.535699 14.2346 0.0500002 12.8438 0.0500002V5.45C13.3936 5.45 14.6639 5.71243 16.2573 6.14272L17.6652 0.929466ZM17.7708 11.8958C17.3964 12.2701 16.8888 12.4804 16.3594 12.4804V7.08036C15.4566 7.08036 14.5908 7.439 13.9524 8.07737L17.7708 11.8958ZM16.3594 12.4804C15.83 12.4804 15.3223 12.2701 14.948 11.8958L18.7664 8.07737C18.128 7.439 17.2622 7.08036 16.3594 7.08036V12.4804ZM14.948 11.8958C14.5737 11.5214 14.3634 11.0137 14.3634 10.4844H19.7634C19.7634 9.58158 19.4048 8.71575 18.7664 8.07737L14.948 11.8958ZM14.3634 10.4844C14.3634 9.95501 14.5737 9.44732 14.948 9.073L18.7664 12.8914C19.4048 12.253 19.7634 11.3872 19.7634 10.4844H14.3634ZM14.948 9.073L10.7293 13.2917L14.5476 17.1101L18.7664 12.8914L14.948 9.073ZM10.7268 13.2942C10.9123 13.1082 11.1327 12.9607 11.3753 12.86L13.4449 17.8476C13.8584 17.6761 14.2339 17.4246 14.55 17.1077L10.7268 13.2942ZM11.3753 12.86C11.6179 12.7593 11.878 12.7075 12.1406 12.7075V18.1075C12.5883 18.1075 13.0315 18.0192 13.4449 17.8476L11.3753 12.86ZM12.1406 12.7075C12.4033 12.7075 12.6634 12.7593 12.906 12.86L10.8363 17.8476C11.2498 18.0192 11.693 18.1075 12.1406 18.1075V12.7075ZM12.906 12.86C13.1486 12.9607 13.3689 13.1082 13.5544 13.2942L9.73122 17.1077C10.0473 17.4246 10.4229 17.6761 10.8363 17.8476L12.906 12.86ZM13.552 13.2917L11.4426 11.1824L7.62426 15.0008L9.73363 17.1101L13.552 13.2917ZM11.4426 11.1824C11.628 11.3677 11.775 11.5878 11.8753 11.8299L6.88636 13.8964C7.05743 14.3094 7.30817 14.6847 7.62426 15.0008L11.4426 11.1824ZM11.8753 11.8299C11.9756 12.0721 12.0272 12.3316 12.0272 12.5938H6.62724C6.62724 13.0408 6.71529 13.4834 6.88636 13.8964L11.8753 11.8299ZM12.0272 12.5938C12.0272 12.8559 11.9756 13.1154 11.8753 13.3576L6.88636 11.2911C6.71529 11.7041 6.62724 12.1467 6.62724 12.5938H12.0272ZM11.8753 13.3576C11.775 13.5997 11.628 13.8198 11.4426 14.0051L7.62426 10.1867C7.30817 10.5028 7.05743 10.8781 6.88636 11.2911L11.8753 13.3576ZM11.4426 14.0051C11.2573 14.1905 11.0373 14.3375 10.7951 14.4378L8.7286 9.44885C8.3156 9.61992 7.94035 9.87066 7.62426 10.1867L11.4426 14.0051ZM10.7951 14.4378C10.5529 14.5381 10.2934 14.5897 10.0313 14.5897V9.18974C9.58424 9.18974 9.14159 9.27778 8.7286 9.44885L10.7951 14.4378ZM10.0313 14.5897C9.76914 14.5897 9.50959 14.5381 9.26743 14.4378L11.3339 9.44885C10.9209 9.27778 10.4783 9.18974 10.0313 9.18974V14.5897ZM9.26743 14.4378C9.02526 14.3375 8.80522 14.1905 8.61988 14.0051L12.4383 10.1867C12.1222 9.87066 11.7469 9.61992 11.3339 9.44885L9.26743 14.4378ZM8.61905 14.0043L10.2306 15.6173L14.0507 11.8006L12.4391 10.1876L8.61905 14.0043ZM14.0502 15.6177L17.7711 11.8954L13.952 8.07773L10.2311 11.8001L14.0502 15.6177Z" fill="white" mask="url(#path-1-outside-1_3511_23488)"/>
</svg>
